<svg xmlns="http://www.w3.org/2000/svg" width="308" viewBox="0 0 230.88 113.25" height="151"><path d="m12.995 2.233-.218 3.937H11.01l-.25-3.937Zm3.172 0-.25 3.937h-1.765l-.235-3.937ZM22.635 17.217c-.906 0-1.726-.148-2.453-.453-.73-.312-1.308-.758-1.734-1.344-.418-.582-.633-1.273-.64-2.078h2.796c.031.543.219.97.563 1.282.343.304.812.453 1.406.453.601 0 1.078-.145 1.422-.438.351-.289.53-.672.53-1.14 0-.383-.12-.704-.358-.954a2.302 2.302 0 0 0-.875-.578 15.372 15.372 0 0 0-1.47-.484c-.843-.25-1.53-.492-2.062-.734a3.6 3.6 0 0 1-1.36-1.094c-.374-.488-.562-1.145-.562-1.969 0-.77.192-1.441.579-2.016.382-.57.925-1.007 1.625-1.312.695-.3 1.488-.453 2.375-.453 1.343 0 2.43.328 3.265.984.844.649 1.305 1.555 1.39 2.719h-2.859a1.538 1.538 0 0 0-.578-1.11c-.343-.288-.812-.437-1.406-.437-.5 0-.906.133-1.219.39-.304.262-.453.641-.453 1.141 0 .344.113.637.344.875.227.23.516.418.86.563.343.137.82.297 1.437.484.851.25 1.547.5 2.078.75.531.242.988.61 1.375 1.11.383.5.578 1.152.578 1.953 0 .699-.184 1.343-.547 1.937-.355.594-.883 1.07-1.578 1.422-.7.356-1.523.531-2.469.531ZM34.058 17.264c-.992 0-1.883-.219-2.672-.656a4.86 4.86 0 0 1-1.875-1.875c-.45-.813-.672-1.742-.672-2.797 0-1.062.227-1.992.688-2.797a4.871 4.871 0 0 1 1.906-1.86c.813-.444 1.711-.671 2.703-.671 1 0 1.899.227 2.703.672a4.77 4.77 0 0 1 1.907 1.86c.468.804.703 1.734.703 2.796 0 1.055-.243 1.984-.72 2.797a5.046 5.046 0 0 1-1.937 1.875c-.812.437-1.726.656-2.734.656Zm0-2.281c.477 0 .926-.113 1.344-.344.414-.226.742-.57.984-1.031.25-.457.375-1.016.375-1.672 0-.976-.262-1.734-.781-2.266a2.504 2.504 0 0 0-1.875-.796c-.75 0-1.375.265-1.875.796-.5.532-.75 1.29-.75 2.266 0 .98.242 1.734.734 2.266.489.523 1.102.78 1.844.78Zm2.219-11.016L31.996 5.92V4.061l4.28-2.219ZM43.974 3.311v13.781h-2.61V3.312ZM51.121 17.264c-.992 0-1.882-.219-2.671-.656a4.86 4.86 0 0 1-1.875-1.875c-.45-.813-.672-1.742-.672-2.797 0-1.062.226-1.992.687-2.797a4.871 4.871 0 0 1 1.906-1.86c.813-.444 1.711-.671 2.704-.671 1 0 1.898.227 2.703.672a4.77 4.77 0 0 1 1.906 1.86c.469.804.703 1.734.703 2.796 0 1.055-.242 1.984-.719 2.797a5.046 5.046 0 0 1-1.937 1.875c-.813.437-1.727.656-2.735.656Zm0-2.281c.477 0 .926-.113 1.344-.344.414-.226.742-.57.985-1.031.25-.457.375-1.016.375-1.672 0-.976-.262-1.734-.782-2.266a2.504 2.504 0 0 0-1.875-.796c-.75 0-1.375.265-1.875.796-.5.532-.75 1.29-.75 2.266 0 .98.243 1.734.735 2.266.488.523 1.101.78 1.843.78ZM71.705 4.092v2.11h-3.453v10.89h-2.609V6.202h-3.469v-2.11ZM78.188 17.264c-.992 0-1.883-.219-2.672-.656a4.86 4.86 0 0 1-1.875-1.875c-.449-.813-.671-1.742-.671-2.797 0-1.062.226-1.992.687-2.797a4.871 4.871 0 0 1 1.906-1.86c.813-.444 1.711-.671 2.703-.671 1 0 1.899.227 2.704.672a4.77 4.77 0 0 1 1.906 1.86c.469.804.703 1.734.703 2.796 0 1.055-.242 1.984-.719 2.797a5.046 5.046 0 0 1-1.937 1.875c-.813.437-1.727.656-2.735.656Zm0-2.281c.477 0 .926-.113 1.344-.344.414-.226.742-.57.984-1.031.25-.457.375-1.016.375-1.672 0-.976-.261-1.734-.78-2.266a2.504 2.504 0 0 0-1.876-.796c-.75 0-1.375.265-1.875.796-.5.532-.75 1.29-.75 2.266 0 .98.242 1.734.735 2.266.488.523 1.101.78 1.843.78ZM98.307 6.624c1.27 0 2.29.39 3.063 1.171.781.774 1.172 1.856 1.172 3.25v6.047h-2.61V11.39c0-.8-.21-1.414-.625-1.844-.406-.425-.964-.64-1.671-.64-.711 0-1.274.215-1.688.64-.406.43-.61 1.043-.61 1.844v5.703H92.73V11.39c0-.8-.21-1.414-.625-1.844-.406-.425-.964-.64-1.672-.64-.718 0-1.289.215-1.703.64-.418.43-.625 1.043-.625 1.844v5.703h-2.609V6.78h2.61v1.234A3.51 3.51 0 0 1 89.4 7a4.022 4.022 0 0 1 1.735-.375c.812 0 1.53.171 2.156.515a3.715 3.715 0 0 1 1.484 1.453c.332-.593.817-1.066 1.453-1.422a4.162 4.162 0 0 1 2.078-.546ZM104.346 11.89c0-1.04.207-1.962.625-2.766.414-.813.976-1.43 1.687-1.86a4.534 4.534 0 0 1 2.406-.656c.77 0 1.442.156 2.016.469.582.312 1.047.703 1.39 1.172v-1.47h2.626v10.313h-2.625v-1.515c-.336.492-.797.898-1.391 1.218-.586.313-1.262.47-2.031.47a4.418 4.418 0 0 1-2.391-.673c-.71-.445-1.273-1.078-1.687-1.89-.418-.813-.625-1.75-.625-2.813Zm8.125.046c0-.633-.125-1.176-.375-1.625a2.675 2.675 0 0 0-2.36-1.406c-.492 0-.937.12-1.344.36a2.65 2.65 0 0 0-1 1.03c-.25.45-.375.98-.375 1.594 0 .625.125 1.172.375 1.64.258.462.598.813 1.016 1.063.414.25.86.375 1.328.375.477 0 .926-.117 1.344-.36a2.606 2.606 0 0 0 1.016-1.03c.25-.457.375-1.004.375-1.64ZM124.659 4.092v8.047c0 .887.227 1.563.687 2.031.457.461 1.102.688 1.938.688.844 0 1.492-.227 1.953-.688.457-.468.688-1.144.688-2.03V4.091h2.625v8.032c0 1.105-.243 2.039-.72 2.796a4.56 4.56 0 0 1-1.921 1.72c-.793.386-1.684.577-2.672.577-.969 0-1.851-.191-2.64-.578a4.382 4.382 0 0 1-1.86-1.719c-.46-.757-.687-1.691-.687-2.796V4.092ZM140.783 6.624c1.227 0 2.223.39 2.985 1.171.758.774 1.14 1.856 1.14 3.25v6.047H142.3V11.39c0-.812-.21-1.437-.625-1.875-.406-.445-.965-.672-1.672-.672-.719 0-1.289.227-1.703.672-.418.438-.625 1.063-.625 1.875v5.703h-2.61V6.78h2.61V8.06a3.652 3.652 0 0 1 1.328-1.047 4.077 4.077 0 0 1 1.781-.39ZM163.499 4.092l-4.781 13h-3.156l-4.766-13h2.781l3.578 10.344 3.563-10.344ZM164.384 11.89c0-1.04.207-1.962.625-2.766.414-.813.977-1.43 1.688-1.86a4.534 4.534 0 0 1 2.406-.656c.77 0 1.441.156 2.016.469.582.312 1.047.703 1.39 1.172v-1.47h2.625v10.313h-2.625v-1.515c-.336.492-.797.898-1.39 1.218-.586.313-1.262.47-2.032.47a4.418 4.418 0 0 1-2.39-.673c-.711-.445-1.274-1.078-1.688-1.89-.418-.813-.625-1.75-.625-2.813Zm8.125.046c0-.633-.125-1.176-.375-1.625a2.675 2.675 0 0 0-2.36-1.406c-.491 0-.937.12-1.343.36a2.65 2.65 0 0 0-1 1.03c-.25.45-.375.98-.375 1.594 0 .625.125 1.172.375 1.64.258.462.598.813 1.016 1.063.414.25.86.375 1.328.375.476 0 .926-.117 1.344-.36a2.606 2.606 0 0 0 1.015-1.03c.25-.457.375-1.004.375-1.64ZM181.64 17.264c-.845 0-1.606-.152-2.282-.453-.668-.312-1.2-.726-1.594-1.25a3.176 3.176 0 0 1-.64-1.734h2.64c.04.406.235.742.578 1 .344.261.77.39 1.282.39.488 0 .875-.097 1.156-.297.281-.207.422-.46.422-.765 0-.344-.172-.598-.516-.766-.336-.164-.875-.347-1.625-.547-.773-.187-1.402-.379-1.89-.578a3.235 3.235 0 0 1-1.266-.906c-.356-.406-.531-.957-.531-1.656 0-.57.16-1.094.484-1.563.332-.476.805-.851 1.422-1.125.613-.27 1.336-.406 2.172-.406 1.226 0 2.207.309 2.937.922.739.617 1.145 1.445 1.219 2.484h-2.5a1.295 1.295 0 0 0-.516-.969c-.304-.25-.71-.375-1.218-.375-.47 0-.836.09-1.094.266a.841.841 0 0 0-.375.719c0 .355.172.62.515.797.352.18.895.36 1.625.547.75.187 1.364.382 1.844.578.489.199.91.508 1.266.922.351.418.535.968.547 1.656 0 .594-.168 1.125-.5 1.594-.324.468-.793.84-1.407 1.109-.617.27-1.335.406-2.156.406ZM192.417 17.264c-.993 0-1.883-.219-2.672-.656a4.86 4.86 0 0 1-1.875-1.875c-.45-.813-.672-1.742-.672-2.797 0-1.062.226-1.992.687-2.797a4.871 4.871 0 0 1 1.907-1.86c.812-.444 1.71-.671 2.703-.671 1 0 1.898.227 2.703.672a4.77 4.77 0 0 1 1.906 1.86c.469.804.703 1.734.703 2.796 0 1.055-.242 1.984-.718 2.797a5.046 5.046 0 0 1-1.938 1.875c-.812.437-1.727.656-2.734.656Zm0-2.281c.476 0 .925-.113 1.343-.344.414-.226.743-.57.985-1.031.25-.457.375-1.016.375-1.672 0-.976-.262-1.734-.781-2.266a2.504 2.504 0 0 0-1.875-.796c-.75 0-1.375.265-1.875.796-.5.532-.75 1.29-.75 2.266 0 .98.242 1.734.734 2.266.488.523 1.101.78 1.844.78ZM212.126 14.608h-5.172l-.86 2.484h-2.734l4.672-13.015h3.031l4.688 13.015h-2.766Zm-.704-2.078-1.875-5.438-1.89 5.438ZM220.104 3.311v13.781h-2.61V3.312ZM19.788 22.222c1.363 0 2.563.266 3.594.797a5.68 5.68 0 0 1 2.406 2.281c.57.992.86 2.137.86 3.438 0 1.304-.29 2.445-.86 3.422-.562.968-1.367 1.726-2.406 2.265-1.031.531-2.23.797-3.594.797h-4.547v-13Zm-.094 10.781c1.364 0 2.414-.367 3.157-1.11.75-.75 1.125-1.8 1.125-3.155 0-1.352-.375-2.41-1.125-3.172-.743-.758-1.793-1.14-3.157-1.14h-1.843v8.577ZM31.316 24.91v10.312h-2.609V24.91Zm.735-2.688-4.281 1.953v-1.86l4.28-2.218ZM33.328 30.019c0-1.04.207-1.961.625-2.766.414-.812.977-1.43 1.687-1.86a4.534 4.534 0 0 1 2.407-.655c.77 0 1.441.156 2.015.468.582.313 1.047.704 1.39 1.172V24.91h2.626v10.312h-2.625v-1.516c-.336.493-.797.899-1.39 1.22-.587.312-1.262.468-2.032.468a4.418 4.418 0 0 1-2.39-.672c-.711-.445-1.274-1.078-1.688-1.89-.418-.813-.625-1.75-.625-2.813Zm8.125.047c0-.633-.125-1.176-.375-1.625a2.675 2.675 0 0 0-2.36-1.406 2.65 2.65 0 0 0-2.344 1.39c-.25.45-.374.98-.374 1.594 0 .625.125 1.172.375 1.64.258.461.597.813 1.015 1.063.415.25.86.375 1.329.375.476 0 .925-.117 1.343-.36a2.606 2.606 0 0 0 1.016-1.03c.25-.458.375-1.005.375-1.641ZM60.938 24.91l-6.39 15.187h-2.766l2.234-5.14-4.14-10.047h2.922l2.672 7.203 2.687-7.203ZM75.61 22.222v2.11h-3.452v10.89h-2.61v-10.89H66.08v-2.11ZM87.265 24.91v10.312H84.64v-1.297c-.343.438-.789.79-1.328 1.047a4.066 4.066 0 0 1-1.75.375c-.812 0-1.531-.164-2.156-.5-.617-.344-1.102-.848-1.453-1.516-.356-.664-.531-1.457-.531-2.375V24.91h2.609v5.671c0 .825.203 1.454.61 1.891.413.438.976.656 1.687.656.719 0 1.281-.218 1.687-.656.414-.437.625-1.066.625-1.89V24.91ZM108.434 22.222v13h-2.61v-8.453l-3.468 8.453h-1.984l-3.5-8.453v8.453h-2.61v-13h2.969l4.125 9.672 4.14-9.672ZM120.603 29.847c0 .367-.028.7-.078 1h-7.532c.063.742.32 1.324.782 1.75.457.418 1.02.625 1.687.625.969 0 1.656-.41 2.063-1.234h2.812a4.69 4.69 0 0 1-1.703 2.453c-.844.636-1.883.953-3.11.953-1 0-1.898-.219-2.687-.656a4.782 4.782 0 0 1-1.844-1.875c-.437-.813-.656-1.743-.656-2.797 0-1.07.219-2.008.656-2.813a4.51 4.51 0 0 1 1.828-1.86c.782-.437 1.68-.655 2.704-.655.976 0 1.851.214 2.625.64a4.39 4.39 0 0 1 1.812 1.797c.426.774.64 1.664.64 2.672Zm-2.703-.75c-.012-.676-.25-1.21-.72-1.61-.468-.406-1.046-.609-1.734-.609-.648 0-1.195.2-1.64.594-.438.387-.703.93-.797 1.625ZM125.55 27.05v4.985c0 .355.081.609.25.765.163.149.445.219.843.219h1.203v2.203h-1.64c-2.2 0-3.297-1.066-3.297-3.203V27.05h-1.219v-2.14h1.219v-2.563h2.64v2.563h2.297v2.14ZM129.058 30.019c0-1.04.207-1.961.625-2.766.414-.812.977-1.43 1.688-1.86a4.534 4.534 0 0 1 2.406-.655c.77 0 1.442.156 2.016.468.582.313 1.047.704 1.39 1.172V24.91h2.625v10.312h-2.625v-1.516c-.336.493-.796.899-1.39 1.22-.586.312-1.262.468-2.031.468a4.418 4.418 0 0 1-2.391-.672c-.711-.445-1.274-1.078-1.688-1.89-.418-.813-.625-1.75-.625-2.813Zm8.125.047c0-.633-.125-1.176-.375-1.625a2.675 2.675 0 0 0-2.36-1.406 2.65 2.65 0 0 0-2.344 1.39c-.249.45-.374.98-.374 1.594 0 .625.125 1.172.375 1.64.258.461.598.813 1.016 1.063.414.25.86.375 1.328.375.477 0 .926-.117 1.344-.36a2.606 2.606 0 0 0 1.015-1.03c.25-.458.375-1.005.375-1.641ZM144.97 26.41c.332-.489.796-.891 1.39-1.204.594-.312 1.266-.468 2.016-.468.883 0 1.68.218 2.39.656.72.43 1.286 1.043 1.704 1.844.414.804.625 1.73.625 2.78 0 1.063-.211 2-.625 2.813-.418.813-.985 1.446-1.704 1.891-.71.45-1.507.672-2.39.672-.774 0-1.445-.152-2.016-.453a4.142 4.142 0 0 1-1.39-1.188v1.469h-2.61V21.441h2.61Zm5.453 3.609c0-.613-.125-1.145-.375-1.594-.25-.457-.586-.8-1-1.031a2.7 2.7 0 0 0-2.688 0c-.418.242-.758.59-1.015 1.047-.25.46-.375 1-.375 1.625 0 .617.125 1.156.375 1.625.257.46.597.808 1.015 1.047.414.242.86.359 1.328.359.489 0 .942-.125 1.36-.375.414-.25.75-.602 1-1.062.25-.458.375-1.004.375-1.641ZM159.568 35.394c-.992 0-1.883-.219-2.672-.656a4.86 4.86 0 0 1-1.875-1.875c-.449-.813-.671-1.743-.671-2.797 0-1.063.226-1.992.687-2.797a4.871 4.871 0 0 1 1.906-1.86c.813-.445 1.711-.671 2.703-.671 1 0 1.899.226 2.704.672a4.77 4.77 0 0 1 1.906 1.859c.469.805.703 1.734.703 2.797 0 1.054-.242 1.984-.719 2.797a5.046 5.046 0 0 1-1.937 1.875c-.813.437-1.727.656-2.735.656Zm0-2.281c.477 0 .926-.114 1.344-.344.414-.227.742-.57.984-1.031.25-.457.375-1.016.375-1.672 0-.977-.261-1.735-.78-2.266a2.504 2.504 0 0 0-1.876-.797c-.75 0-1.375.266-1.875.797s-.75 1.29-.75 2.266c0 .98.242 1.734.735 2.265.488.524 1.101.782 1.843.782ZM169.484 21.44v13.782h-2.609V21.441ZM173.382 23.675c-.461 0-.844-.144-1.156-.437-.305-.29-.454-.657-.454-1.094 0-.438.149-.8.454-1.094.312-.289.695-.437 1.156-.437.457 0 .836.148 1.14.437.301.293.454.656.454 1.094 0 .437-.153.805-.454 1.094-.304.293-.683.437-1.14.437Zm1.281 1.235v10.312h-2.61V24.91ZM181.185 35.394c-.843 0-1.605-.152-2.28-.453-.669-.313-1.2-.727-1.595-1.25a3.176 3.176 0 0 1-.64-1.735h2.64c.04.407.235.743.579 1 .343.262.77.391 1.28.391.49 0 .876-.098 1.157-.297.281-.207.422-.46.422-.765 0-.344-.172-.598-.516-.766-.336-.164-.875-.348-1.625-.547-.773-.187-1.402-.379-1.89-.578a3.235 3.235 0 0 1-1.266-.906c-.355-.407-.531-.957-.531-1.657 0-.57.16-1.093.484-1.562.332-.477.805-.852 1.422-1.125.613-.27 1.336-.406 2.172-.406 1.226 0 2.207.308 2.937.922.739.617 1.145 1.445 1.22 2.484h-2.5a1.295 1.295 0 0 0-.516-.969c-.305-.25-.711-.375-1.22-.375-.468 0-.835.09-1.093.266a.841.841 0 0 0-.375.719c0 .355.172.62.516.796.351.18.894.36 1.625.547.75.188 1.363.383 1.843.578.489.2.91.508 1.266.922.352.418.535.969.547 1.657 0 .593-.168 1.125-.5 1.593-.324.469-.793.84-1.406 1.11-.618.27-1.336.406-2.157.406ZM200.197 24.753c1.27 0 2.29.39 3.063 1.172.78.774 1.172 1.856 1.172 3.25v6.047h-2.61v-5.703c0-.8-.21-1.414-.625-1.844-.406-.426-.965-.64-1.672-.64-.71 0-1.273.214-1.687.64-.406.43-.61 1.043-.61 1.844v5.703h-2.609v-5.703c0-.8-.21-1.414-.625-1.844-.406-.426-.965-.64-1.672-.64-.719 0-1.289.214-1.703.64-.418.43-.625 1.043-.625 1.844v5.703h-2.61V24.91h2.61v1.234a3.51 3.51 0 0 1 1.297-1.016 4.022 4.022 0 0 1 1.734-.375c.813 0 1.532.172 2.157.516a3.715 3.715 0 0 1 1.484 1.453c.332-.594.816-1.066 1.453-1.422a4.162 4.162 0 0 1 2.078-.547ZM211.485 35.394c-.992 0-1.883-.219-2.672-.656a4.86 4.86 0 0 1-1.875-1.875c-.449-.813-.672-1.743-.672-2.797 0-1.063.227-1.992.688-2.797a4.871 4.871 0 0 1 1.906-1.86c.813-.445 1.711-.671 2.703-.671 1 0 1.899.226 2.703.672a4.77 4.77 0 0 1 1.907 1.859c.468.805.703 1.734.703 2.797 0 1.054-.242 1.984-.719 2.797a5.046 5.046 0 0 1-1.937 1.875c-.813.437-1.727.656-2.735.656Zm0-2.281c.477 0 .926-.114 1.344-.344.414-.227.742-.57.984-1.031.25-.457.375-1.016.375-1.672 0-.977-.261-1.735-.78-2.266a2.504 2.504 0 0 0-1.876-.797c-.75 0-1.375.266-1.875.797s-.75 1.29-.75 2.266c0 .98.242 1.734.734 2.265.489.524 1.102.782 1.844.782ZM34.528 53.477c-.906 0-1.726-.149-2.453-.453-.73-.313-1.308-.758-1.734-1.344-.418-.582-.633-1.274-.64-2.078h2.796c.031.543.219.968.562 1.281.344.305.813.453 1.407.453.601 0 1.078-.144 1.422-.437.351-.29.53-.672.53-1.141 0-.383-.12-.703-.359-.953a2.302 2.302 0 0 0-.875-.578 15.372 15.372 0 0 0-1.468-.485c-.844-.25-1.532-.492-2.063-.734a3.6 3.6 0 0 1-1.36-1.094c-.374-.488-.562-1.144-.562-1.969 0-.77.192-1.44.578-2.015.383-.57.926-1.008 1.625-1.313.696-.3 1.489-.453 2.375-.453 1.344 0 2.43.328 3.266.985.844.648 1.305 1.554 1.39 2.718h-2.859a1.538 1.538 0 0 0-.578-1.109c-.344-.29-.812-.438-1.406-.438-.5 0-.906.133-1.219.391-.304.262-.453.64-.453 1.14 0 .344.113.637.344.876.226.23.515.418.86.562.343.137.82.297 1.437.485.851.25 1.547.5 2.078.75.531.242.988.609 1.375 1.109.383.5.578 1.152.578 1.953 0 .7-.184 1.344-.547 1.938-.355.593-.883 1.07-1.578 1.421-.7.356-1.523.532-2.469.532ZM50.967 47.977c0 .367-.028.699-.079 1h-7.53c.062.742.32 1.324.78 1.75.457.418 1.02.625 1.688.625.969 0 1.656-.41 2.062-1.235h2.813a4.69 4.69 0 0 1-1.703 2.453c-.844.637-1.883.954-3.11.954-1 0-1.898-.22-2.687-.657a4.782 4.782 0 0 1-1.844-1.875c-.437-.812-.656-1.742-.656-2.797 0-1.07.219-2.007.656-2.812a4.51 4.51 0 0 1 1.828-1.86c.782-.437 1.68-.656 2.703-.656.977 0 1.852.215 2.625.641a4.39 4.39 0 0 1 1.813 1.797c.426.773.64 1.664.64 2.672Zm-2.704-.75c-.011-.676-.25-1.211-.718-1.61-.47-.406-1.047-.609-1.735-.609-.648 0-1.195.2-1.64.594-.438.386-.703.93-.797 1.625ZM61.847 40.352c1.363 0 2.562.265 3.594.797a5.68 5.68 0 0 1 2.406 2.28c.57.993.86 2.138.86 3.438 0 1.305-.29 2.446-.86 3.422-.563.969-1.367 1.727-2.406 2.266-1.032.531-2.23.797-3.594.797H57.3v-13Zm-.094 10.781c1.363 0 2.414-.367 3.156-1.11.75-.75 1.125-1.8 1.125-3.156 0-1.351-.375-2.41-1.125-3.172-.742-.757-1.793-1.14-3.156-1.14H59.91v8.578ZM71.985 41.805c-.461 0-.844-.145-1.157-.438-.304-.289-.453-.656-.453-1.093 0-.438.149-.801.453-1.094.313-.29.696-.438 1.157-.438.457 0 .835.149 1.14.438.3.293.453.656.453 1.094 0 .437-.152.804-.453 1.093-.305.293-.683.438-1.14.438Zm1.28 1.234v10.313h-2.609V43.039ZM79.788 53.524c-.844 0-1.605-.153-2.281-.454-.668-.312-1.2-.726-1.594-1.25a3.176 3.176 0 0 1-.64-1.734h2.64c.04.406.235.742.578 1 .344.262.77.39 1.282.39.488 0 .875-.097 1.156-.296.281-.207.422-.461.422-.766 0-.344-.172-.597-.516-.765-.336-.164-.875-.348-1.625-.547-.773-.188-1.402-.38-1.89-.578a3.235 3.235 0 0 1-1.266-.907c-.356-.406-.531-.957-.531-1.656 0-.57.16-1.094.484-1.562.332-.477.805-.852 1.422-1.125.613-.27 1.336-.407 2.172-.407 1.226 0 2.207.309 2.937.922.738.617 1.145 1.446 1.219 2.485h-2.5a1.295 1.295 0 0 0-.516-.97c-.304-.25-.71-.374-1.218-.374-.47 0-.836.09-1.094.265a.841.841 0 0 0-.375.72c0 .355.172.62.515.796.352.18.895.36 1.625.547.75.187 1.364.383 1.844.578.488.2.91.508 1.266.922.351.418.535.969.547 1.656 0 .594-.168 1.125-.5 1.594-.325.469-.793.84-1.407 1.11-.617.269-1.336.406-2.156.406ZM88.597 44.524c.332-.47.797-.86 1.39-1.172.594-.32 1.266-.485 2.016-.485.883 0 1.68.22 2.39.657.72.43 1.286 1.043 1.704 1.843.414.805.625 1.73.625 2.782 0 1.062-.211 2-.625 2.812-.418.813-.985 1.445-1.703 1.89-.711.45-1.508.673-2.39.673-.75 0-1.419-.157-2-.47a4.424 4.424 0 0 1-1.407-1.171v6.39h-2.61V43.04h2.61Zm5.453 3.625c0-.614-.125-1.145-.375-1.594-.25-.457-.586-.8-1-1.031a2.7 2.7 0 0 0-2.688 0c-.418.242-.757.59-1.015 1.046-.25.461-.375 1-.375 1.625 0 .618.125 1.157.375 1.625.258.461.597.81 1.015 1.047.415.243.86.36 1.329.36.488 0 .941-.125 1.359-.375.414-.25.75-.602 1-1.063.25-.457.375-1.004.375-1.64ZM97.946 48.149c0-1.04.207-1.961.625-2.766.414-.813.976-1.43 1.687-1.86a4.534 4.534 0 0 1 2.406-.656c.77 0 1.442.157 2.016.47.582.312 1.047.702 1.39 1.171v-1.469h2.626v10.313h-2.625v-1.516c-.336.492-.797.899-1.391 1.219-.586.312-1.262.469-2.031.469a4.418 4.418 0 0 1-2.391-.672c-.71-.446-1.273-1.078-1.687-1.89-.418-.813-.625-1.75-.625-2.813Zm8.125.046c0-.632-.125-1.175-.375-1.625a2.675 2.675 0 0 0-2.36-1.406c-.492 0-.937.121-1.344.36a2.65 2.65 0 0 0-1 1.03c-.25.45-.375.981-.375 1.595 0 .625.125 1.171.375 1.64.258.461.598.813 1.016 1.063.414.25.86.375 1.328.375.477 0 .926-.117 1.344-.36a2.606 2.606 0 0 0 1.016-1.03c.25-.458.375-1.005.375-1.642ZM113.857 44.633c.332-.54.77-.969 1.312-1.281.54-.313 1.16-.469 1.86-.469v2.734h-.688c-.824 0-1.445.196-1.86.578-.417.387-.624 1.06-.624 2.016v5.14h-2.61V43.04h2.61ZM118.101 48.149c0-1.04.207-1.961.625-2.766.414-.813.977-1.43 1.688-1.86a4.534 4.534 0 0 1 2.406-.656c.77 0 1.441.157 2.016.47.582.312 1.046.702 1.39 1.171v-1.469h2.625v10.313h-2.625v-1.516c-.336.492-.797.899-1.39 1.219-.586.312-1.262.469-2.032.469a4.418 4.418 0 0 1-2.39-.672c-.711-.446-1.274-1.078-1.688-1.89-.418-.813-.625-1.75-.625-2.813Zm8.125.046c0-.632-.125-1.175-.375-1.625a2.675 2.675 0 0 0-2.36-1.406c-.491 0-.937.121-1.343.36a2.65 2.65 0 0 0-1 1.03c-.25.45-.375.981-.375 1.595 0 .625.125 1.171.375 1.64.258.461.598.813 1.016 1.063.414.25.86.375 1.328.375.476 0 .926-.117 1.344-.36a2.606 2.606 0 0 0 1.015-1.03c.25-.458.375-1.005.375-1.642ZM134.012 44.633c.332-.54.77-.969 1.313-1.281.539-.313 1.16-.469 1.86-.469v2.734h-.688c-.824 0-1.446.196-1.86.578-.418.387-.625 1.06-.625 2.016v5.14h-2.609V43.04h2.61ZM138.257 48.149c0-1.04.207-1.961.625-2.766.414-.813.977-1.43 1.687-1.86a4.534 4.534 0 0 1 2.407-.656c.77 0 1.441.157 2.015.47.582.312 1.047.702 1.391 1.171v-1.469h2.625v10.313h-2.625v-1.516c-.336.492-.797.899-1.39 1.219-.587.312-1.262.469-2.032.469a4.418 4.418 0 0 1-2.39-.672c-.711-.446-1.274-1.078-1.688-1.89-.418-.813-.625-1.75-.625-2.813Zm8.125.046c0-.632-.125-1.175-.375-1.625a2.675 2.675 0 0 0-2.36-1.406c-.492 0-.937.121-1.343.36a2.65 2.65 0 0 0-1 1.03c-.25.45-.375.981-.375 1.595 0 .625.125 1.171.375 1.64.258.461.598.813 1.015 1.063.415.25.86.375 1.329.375.476 0 .925-.117 1.343-.36a2.606 2.606 0 0 0 1.016-1.03c.25-.458.375-1.005.375-1.642Zm-.36-7.843-4.28 1.953v-1.86l4.28-2.218ZM153.2 38.492l-.22 3.938h-1.765l-.25-3.938Zm3.171 0-.25 3.938h-1.765l-.235-3.938ZM167.32 40.352c1.363 0 2.562.265 3.594.797a5.68 5.68 0 0 1 2.406 2.28c.57.993.86 2.138.86 3.438 0 1.305-.29 2.446-.86 3.422-.563.969-1.367 1.727-2.406 2.266-1.032.531-2.23.797-3.594.797h-4.547v-13Zm-.094 10.781c1.363 0 2.414-.367 3.156-1.11.75-.75 1.125-1.8 1.125-3.156 0-1.351-.375-2.41-1.125-3.172-.742-.757-1.793-1.14-3.156-1.14h-1.844v8.578ZM177.458 41.805c-.461 0-.844-.145-1.157-.438-.304-.289-.453-.656-.453-1.093 0-.438.149-.801.453-1.094.313-.29.696-.438 1.157-.438.457 0 .836.149 1.14.438.301.293.453.656.453 1.094 0 .437-.152.804-.453 1.093-.304.293-.683.438-1.14.438Zm1.28 1.234v10.313h-2.609V43.039ZM180.636 48.195c0-1.07.219-2.003.656-2.796a4.64 4.64 0 0 1 1.813-1.86c.77-.445 1.648-.672 2.64-.672 1.282 0 2.337.325 3.172.97.844.636 1.407 1.53 1.688 2.687h-2.813a2.034 2.034 0 0 0-.75-1.047c-.355-.258-.792-.39-1.312-.39-.75 0-1.344.273-1.781.812-.43.53-.64 1.296-.64 2.296 0 .98.21 1.743.64 2.282.437.543 1.031.812 1.781.812 1.05 0 1.738-.472 2.062-1.422h2.813c-.281 1.118-.844 2.008-1.688 2.672-.843.656-1.902.985-3.171.985-.993 0-1.871-.22-2.641-.657a4.706 4.706 0 0 1-1.813-1.875c-.437-.8-.656-1.734-.656-2.797ZM202.116 47.977c0 .367-.027.699-.078 1h-7.531c.062.742.32 1.324.78 1.75.458.418 1.02.625 1.688.625.97 0 1.657-.41 2.063-1.235h2.812a4.69 4.69 0 0 1-1.703 2.453c-.843.637-1.883.954-3.11.954-1 0-1.898-.22-2.687-.657a4.782 4.782 0 0 1-1.843-1.875c-.438-.812-.657-1.742-.657-2.797 0-1.07.22-2.007.657-2.812a4.51 4.51 0 0 1 1.828-1.86c.781-.437 1.68-.656 2.703-.656.976 0 1.851.215 2.625.641a4.39 4.39 0 0 1 1.812 1.797c.426.773.641 1.664.641 2.672Zm-2.703-.75c-.012-.676-.25-1.211-.719-1.61-.469-.406-1.047-.609-1.734-.609-.649 0-1.196.2-1.64.594-.438.386-.704.93-.798 1.625ZM20.565 71.481h-2.61L12.05 62.56v8.921H9.44V58.466h2.61l5.906 8.937v-8.937h2.61ZM32.881 61.169V71.48h-2.625v-1.296c-.343.437-.789.789-1.328 1.046a4.066 4.066 0 0 1-1.75.375c-.812 0-1.53-.164-2.156-.5-.617-.343-1.101-.847-1.453-1.515-.356-.664-.531-1.457-.531-2.375v-6.047h2.61v5.672c0 .824.202 1.453.608 1.89.415.438.977.657 1.688.657.719 0 1.281-.22 1.687-.657.415-.437.625-1.066.625-1.89v-5.672ZM38.492 63.31v4.984c0 .355.082.61.25.766.164.148.445.218.843.218h1.203v2.203h-1.64c-2.2 0-3.297-1.066-3.297-3.203V63.31h-1.219v-2.141h1.219v-2.563h2.64v2.563h2.297v2.14ZM45.282 62.763c.332-.54.77-.97 1.312-1.282.54-.312 1.16-.468 1.86-.468v2.734h-.688c-.824 0-1.445.195-1.86.578-.417.387-.624 1.059-.624 2.016v5.14h-2.61V61.17h2.61ZM51.526 59.935c-.46 0-.843-.145-1.156-.438-.305-.289-.453-.656-.453-1.094 0-.437.148-.8.453-1.093.313-.29.695-.438 1.156-.438.457 0 .836.148 1.141.438.3.293.453.656.453 1.093 0 .438-.152.805-.453 1.094-.305.293-.684.438-1.14.438Zm1.282 1.234V71.48h-2.61V61.17ZM54.705 66.325c0-1.07.219-2.004.656-2.797a4.64 4.64 0 0 1 1.813-1.86c.77-.444 1.648-.671 2.64-.671 1.282 0 2.336.324 3.172.969.844.637 1.407 1.531 1.688 2.687H61.86a2.034 2.034 0 0 0-.75-1.047c-.355-.257-.793-.39-1.312-.39-.75 0-1.344.273-1.781.812-.43.532-.641 1.297-.641 2.297 0 .98.21 1.742.64 2.281.438.543 1.032.813 1.782.813 1.05 0 1.738-.473 2.062-1.422h2.813c-.281 1.117-.844 2.008-1.688 2.672-.843.656-1.902.984-3.172.984-.992 0-1.87-.218-2.64-.656a4.706 4.706 0 0 1-1.813-1.875c-.437-.8-.656-1.734-.656-2.797ZM67.92 59.935c-.462 0-.845-.145-1.157-.438-.305-.289-.453-.656-.453-1.094 0-.437.148-.8.453-1.093.312-.29.695-.438 1.156-.438.457 0 .836.148 1.14.438.302.293.454.656.454 1.093 0 .438-.152.805-.453 1.094-.305.293-.684.438-1.14.438Zm1.28 1.234V71.48h-2.609V61.17ZM76.348 71.653c-.992 0-1.883-.218-2.672-.656a4.86 4.86 0 0 1-1.875-1.875c-.45-.812-.672-1.742-.672-2.797 0-1.062.227-1.992.688-2.797a4.871 4.871 0 0 1 1.906-1.86c.812-.444 1.71-.671 2.703-.671 1 0 1.898.227 2.703.672a4.77 4.77 0 0 1 1.906 1.86c.47.804.704 1.734.704 2.796 0 1.055-.243 1.985-.72 2.797a5.046 5.046 0 0 1-1.937 1.875c-.812.438-1.726.656-2.734.656Zm0-2.281c.476 0 .926-.113 1.344-.344.414-.226.742-.57.984-1.031.25-.457.375-1.016.375-1.672 0-.976-.262-1.734-.781-2.265a2.504 2.504 0 0 0-1.875-.797c-.75 0-1.375.265-1.875.797-.5.53-.75 1.289-.75 2.265 0 .98.242 1.735.734 2.266.488.523 1.102.781 1.844.781ZM89.373 61.013c1.227 0 2.223.39 2.985 1.172.758.773 1.14 1.855 1.14 3.25v6.046h-2.61v-5.703c0-.812-.21-1.437-.624-1.875-.406-.445-.965-.672-1.672-.672-.719 0-1.289.227-1.703.672-.418.438-.625 1.063-.625 1.875v5.703h-2.61V61.17h2.61v1.281a3.652 3.652 0 0 1 1.328-1.047 4.077 4.077 0 0 1 1.781-.39ZM97.296 59.935c-.461 0-.844-.145-1.156-.438-.305-.289-.453-.656-.453-1.094 0-.437.148-.8.453-1.093.312-.29.695-.438 1.156-.438.457 0 .836.148 1.14.438.301.293.454.656.454 1.093 0 .438-.153.805-.453 1.094-.305.293-.684.438-1.141.438Zm1.281 1.234V71.48h-2.61V61.17ZM105.1 71.653c-.844 0-1.606-.152-2.282-.453-.668-.312-1.199-.726-1.593-1.25a3.176 3.176 0 0 1-.641-1.734h2.64c.04.406.235.742.579 1 .343.262.77.39 1.281.39.488 0 .875-.097 1.156-.296.281-.207.422-.461.422-.766 0-.344-.172-.598-.516-.766-.335-.164-.875-.347-1.625-.547-.773-.187-1.402-.378-1.89-.578a3.235 3.235 0 0 1-1.266-.906c-.355-.406-.531-.957-.531-1.656 0-.57.16-1.094.484-1.563.332-.476.805-.851 1.422-1.125.614-.27 1.336-.406 2.172-.406 1.227 0 2.207.309 2.938.922.738.617 1.144 1.445 1.218 2.484h-2.5a1.295 1.295 0 0 0-.515-.968c-.305-.25-.711-.375-1.219-.375-.469 0-.836.09-1.094.265a.841.841 0 0 0-.375.719c0 .355.172.621.516.797.351.18.894.36 1.625.547.75.187 1.363.382 1.844.578.488.199.91.508 1.265.922.352.418.535.968.547 1.656 0 .594-.168 1.125-.5 1.594-.324.468-.793.84-1.406 1.109-.617.27-1.336.406-2.156.406ZM114.346 63.31v4.984c0 .355.082.61.25.766.164.148.445.218.843.218h1.204v2.203h-1.641c-2.2 0-3.297-1.066-3.297-3.203V63.31h-1.219v-2.141h1.22v-2.563h2.64v2.563h2.297v2.14ZM117.855 66.278c0-1.039.207-1.96.625-2.765.414-.813.976-1.43 1.687-1.86a4.534 4.534 0 0 1 2.407-.656c.769 0 1.44.156 2.015.469.582.312 1.047.703 1.39 1.172v-1.47h2.626v10.313h-2.625v-1.515c-.336.492-.797.898-1.39 1.219-.587.312-1.263.468-2.032.468a4.418 4.418 0 0 1-2.39-.672c-.712-.445-1.274-1.078-1.688-1.89-.418-.813-.625-1.75-.625-2.813Zm8.125.047c0-.633-.125-1.176-.375-1.625a2.675 2.675 0 0 0-2.36-1.406c-.492 0-.937.121-1.343.36a2.65 2.65 0 0 0-1 1.03c-.25.45-.375.981-.375 1.594 0 .625.125 1.172.375 1.64.257.462.597.813 1.015 1.063.414.25.86.375 1.328.375.477 0 .926-.117 1.344-.359a2.606 2.606 0 0 0 1.016-1.031c.25-.457.375-1.004.375-1.64ZM145.278 73.778l-1.97-2.375a7.226 7.226 0 0 1-1.687.203 6.804 6.804 0 0 1-3.343-.843 6.342 6.342 0 0 1-2.422-2.375c-.594-1.02-.89-2.164-.89-3.438 0-1.27.296-2.41.89-3.422a6.398 6.398 0 0 1 2.422-2.375 6.734 6.734 0 0 1 3.343-.86c1.227 0 2.348.29 3.36.86a6.329 6.329 0 0 1 2.406 2.375c.594 1.012.89 2.153.89 3.422 0 1.149-.246 2.2-.734 3.156a6.344 6.344 0 0 1-2 2.313l2.969 3.36Zm-7.641-8.828c0 .867.164 1.625.5 2.281.344.657.812 1.164 1.406 1.516.602.356 1.297.531 2.078.531.79 0 1.485-.175 2.078-.531.594-.352 1.055-.86 1.391-1.516.332-.656.5-1.414.5-2.28 0-.876-.168-1.634-.5-2.282-.336-.656-.797-1.156-1.39-1.5-.594-.352-1.29-.531-2.079-.531-.78 0-1.476.18-2.078.53-.594.345-1.062.845-1.406 1.5-.336.65-.5 1.407-.5 2.282ZM160 61.169V71.48h-2.624v-1.296c-.344.437-.79.789-1.329 1.046a4.066 4.066 0 0 1-1.75.375c-.812 0-1.53-.164-2.156-.5-.617-.343-1.101-.847-1.453-1.515-.355-.664-.531-1.457-.531-2.375v-6.047h2.61v5.672c0 .824.202 1.453.609 1.89.414.438.976.657 1.687.657.719 0 1.281-.22 1.688-.657.414-.437.625-1.066.625-1.89v-5.672ZM172.158 66.106c0 .368-.028.7-.079 1h-7.53c.062.743.32 1.325.78 1.75.457.418 1.02.625 1.688.625.969 0 1.656-.41 2.062-1.234h2.813a4.69 4.69 0 0 1-1.703 2.453c-.844.637-1.883.953-3.11.953-1 0-1.898-.218-2.687-.656a4.782 4.782 0 0 1-1.844-1.875c-.437-.812-.656-1.742-.656-2.797 0-1.07.219-2.008.656-2.812a4.51 4.51 0 0 1 1.828-1.86c.782-.437 1.68-.656 2.703-.656.977 0 1.852.215 2.625.64a4.39 4.39 0 0 1 1.813 1.798c.426.773.64 1.664.64 2.671Zm-2.704-.75c-.011-.675-.25-1.21-.718-1.609-.47-.406-1.047-.61-1.735-.61-.648 0-1.195.2-1.64.594-.438.387-.703.93-.797 1.625ZM185.866 64.81a2.903 2.903 0 0 1 1.812 1.109c.47.594.704 1.277.704 2.047 0 .687-.172 1.297-.516 1.828-.336.531-.824.95-1.469 1.25-.648.293-1.414.437-2.297.437h-5.61v-13h5.376c.875 0 1.629.149 2.266.438.644.281 1.128.68 1.453 1.187.332.512.5 1.09.5 1.735 0 .75-.203 1.383-.61 1.89-.398.512-.933.872-1.61 1.079Zm-4.766-.97h2.39c.614 0 1.087-.132 1.423-.405.344-.282.515-.68.515-1.204 0-.52-.171-.921-.515-1.203-.336-.289-.809-.437-1.422-.437h-2.39Zm2.625 5.516c.633 0 1.13-.144 1.485-.437.351-.3.53-.727.53-1.281 0-.551-.187-.985-.562-1.297-.375-.32-.875-.485-1.5-.485H181.1v3.5ZM189.797 66.278c0-1.039.207-1.96.625-2.765.414-.813.977-1.43 1.687-1.86a4.534 4.534 0 0 1 2.407-.656c.77 0 1.441.156 2.015.469.582.312 1.047.703 1.391 1.172v-1.47h2.625v10.313h-2.625v-1.515c-.336.492-.797.898-1.39 1.219-.587.312-1.262.468-2.032.468a4.418 4.418 0 0 1-2.39-.672c-.711-.445-1.274-1.078-1.688-1.89-.418-.813-.625-1.75-.625-2.813Zm8.125.047c0-.633-.125-1.176-.375-1.625a2.675 2.675 0 0 0-2.36-1.406c-.492 0-.937.121-1.343.36a2.65 2.65 0 0 0-1 1.03c-.25.45-.375.981-.375 1.594 0 .625.125 1.172.375 1.64.258.462.598.813 1.015 1.063.415.25.86.375 1.329.375.476 0 .925-.117 1.343-.359a2.606 2.606 0 0 0 1.016-1.031c.25-.457.375-1.004.375-1.64ZM204.427 59.935c-.469 0-.86-.145-1.172-.438-.305-.289-.453-.656-.453-1.094 0-.437.148-.8.453-1.093.313-.29.703-.438 1.172-.438.457 0 .832.148 1.125.438.3.293.453.656.453 1.093 0 .438-.152.805-.453 1.094-.293.293-.668.438-1.125.438Zm1.281 13.234c0 1.144-.281 1.969-.844 2.469-.562.507-1.375.765-2.437.765h-1.156v-2.218h.75c.394 0 .672-.079.828-.235.164-.156.25-.406.25-.75V61.17h2.61ZM212.856 71.653c-.993 0-1.883-.218-2.672-.656a4.86 4.86 0 0 1-1.875-1.875c-.45-.812-.672-1.742-.672-2.797 0-1.062.226-1.992.687-2.797a4.871 4.871 0 0 1 1.907-1.86c.812-.444 1.71-.671 2.703-.671 1 0 1.898.227 2.703.672a4.77 4.77 0 0 1 1.906 1.86c.469.804.703 1.734.703 2.796 0 1.055-.242 1.985-.719 2.797a5.046 5.046 0 0 1-1.937 1.875c-.813.438-1.727.656-2.734.656Zm0-2.281c.476 0 .925-.113 1.343-.344.414-.226.743-.57.985-1.031.25-.457.375-1.016.375-1.672 0-.976-.262-1.734-.782-2.265a2.504 2.504 0 0 0-1.875-.797c-.75 0-1.375.265-1.875.797-.5.53-.75 1.289-.75 2.265 0 .98.243 1.735.735 2.266.488.523 1.101.781 1.844.781Zm2.218-11.016-4.28 1.954v-1.86l4.28-2.219Zm0 0"></path><path d="M13.963 78.44v-2.407h4.485v13.578h-2.672V78.44ZM21.066 79.611c.063-1.238.5-2.195 1.313-2.875.812-.676 1.878-1.016 3.203-1.016.906 0 1.68.165 2.328.485.644.312 1.129.742 1.453 1.281.332.531.5 1.14.5 1.828 0 .781-.203 1.446-.61 1.985-.398.543-.874.906-1.437 1.093v.063c.719.23 1.281.633 1.688 1.203.406.562.609 1.293.609 2.187 0 .75-.172 1.418-.516 2-.343.586-.851 1.043-1.515 1.375-.657.325-1.453.485-2.39.485-1.4 0-2.54-.352-3.423-1.063-.887-.707-1.351-1.75-1.39-3.125h2.53c.02.606.223 1.09.61 1.453.395.368.938.547 1.625.547.633 0 1.117-.172 1.453-.515.344-.352.516-.813.516-1.375 0-.75-.234-1.285-.703-1.61-.469-.32-1.203-.484-2.203-.484h-.532v-2.14h.532c1.758 0 2.64-.587 2.64-1.766 0-.532-.156-.942-.468-1.235-.313-.3-.774-.453-1.375-.453-.586 0-1.032.156-1.344.469-.313.312-.496.715-.547 1.203ZM44.242 89.611l-4.735-5.797v5.797h-2.61v-13h2.61v5.828l4.735-5.828h3.14l-5.36 6.438 5.517 6.562ZM50.577 78.064c-.461 0-.844-.144-1.157-.437-.304-.29-.453-.657-.453-1.094 0-.438.149-.8.453-1.094.313-.289.696-.437 1.157-.437.457 0 .836.148 1.14.437.301.293.453.656.453 1.094 0 .437-.152.805-.453 1.094-.304.293-.683.437-1.14.437Zm1.28 1.235V89.61h-2.609V79.3ZM57.036 75.83V89.61h-2.609V75.83ZM64.184 89.783c-.992 0-1.883-.219-2.672-.656a4.86 4.86 0 0 1-1.875-1.875c-.45-.813-.672-1.742-.672-2.797 0-1.063.227-1.992.688-2.797a4.871 4.871 0 0 1 1.906-1.86c.812-.445 1.71-.671 2.703-.671 1 0 1.898.226 2.703.672a4.77 4.77 0 0 1 1.906 1.859c.47.805.703 1.734.703 2.797 0 1.055-.242 1.984-.718 2.797a5.046 5.046 0 0 1-1.938 1.875c-.812.437-1.726.656-2.734.656Zm0-2.281c.476 0 .926-.114 1.344-.344.414-.227.742-.57.984-1.031.25-.457.375-1.016.375-1.672 0-.977-.262-1.735-.781-2.266a2.504 2.504 0 0 0-1.875-.797c-.75 0-1.375.266-1.875.797s-.75 1.29-.75 2.266c0 .98.242 1.734.734 2.265.488.524 1.102.782 1.844.782ZM75.444 89.783c-.844 0-1.606-.152-2.282-.453-.668-.313-1.199-.727-1.593-1.25a3.176 3.176 0 0 1-.641-1.735h2.64c.04.407.235.743.579 1 .344.262.77.391 1.281.391.488 0 .875-.098 1.156-.297.282-.207.422-.46.422-.765 0-.344-.172-.598-.515-.766-.336-.164-.875-.348-1.625-.547-.774-.187-1.403-.379-1.891-.578a3.235 3.235 0 0 1-1.266-.906c-.355-.407-.531-.957-.531-1.657 0-.57.16-1.093.484-1.562.332-.477.805-.852 1.422-1.125.614-.27 1.336-.406 2.172-.406 1.227 0 2.207.308 2.938.922.738.617 1.144 1.445 1.218 2.484h-2.5a1.295 1.295 0 0 0-.515-.969c-.305-.25-.711-.375-1.219-.375-.469 0-.836.09-1.094.266a.841.841 0 0 0-.375.719c0 .355.172.62.516.796.351.18.894.36 1.625.547.75.188 1.363.383 1.844.578.488.2.91.508 1.265.922.352.418.535.97.547 1.657 0 .593-.168 1.125-.5 1.593-.324.47-.793.84-1.406 1.11-.617.27-1.336.406-2.156.406Zm0 0" fill="#ff1616"></path><path d="M88.681 78.72v3.25h4.375v2.079h-4.375v3.437h4.938v2.125h-7.547V76.595h7.547v2.125ZM101.7 79.142c1.227 0 2.223.391 2.985 1.172.758.774 1.14 1.856 1.14 3.25v6.047h-2.609v-5.703c0-.813-.21-1.438-.625-1.875-.406-.445-.965-.672-1.672-.672-.718 0-1.289.227-1.703.672-.418.437-.625 1.062-.625 1.875v5.703h-2.61V79.3h2.61v1.28a3.652 3.652 0 0 1 1.328-1.046 4.077 4.077 0 0 1 1.782-.39ZM112.12 78.44v-2.407h4.484v13.578h-2.672V78.44ZM119.175 82.642c0-2.144.383-3.828 1.156-5.047.782-1.218 2.07-1.828 3.875-1.828 1.801 0 3.086.61 3.86 1.828.781 1.22 1.172 2.903 1.172 5.047 0 2.168-.39 3.868-1.172 5.094-.774 1.23-2.059 1.844-3.86 1.844-1.804 0-3.093-.613-3.875-1.844-.773-1.226-1.156-2.926-1.156-5.094Zm7.485 0c0-.914-.059-1.687-.172-2.312-.117-.625-.352-1.133-.703-1.531-.356-.407-.883-.61-1.579-.61-.699 0-1.226.203-1.578.61-.355.398-.59.906-.703 1.53-.117.626-.172 1.4-.172 2.313 0 .95.051 1.746.157 2.391.113.637.347 1.152.703 1.547.363.387.894.578 1.593.578.696 0 1.223-.191 1.579-.578.363-.395.597-.91.703-1.547.113-.645.172-1.441.172-2.39ZM135.268 84.408c0-1.04.207-1.961.625-2.766.414-.812.984-1.43 1.703-1.859a4.534 4.534 0 0 1 2.406-.656c.664 0 1.3.148 1.906.437.613.293 1.102.68 1.469 1.156v-4.89h2.64V89.61h-2.64V88.08c-.324.512-.777.922-1.36 1.234-.585.313-1.261.469-2.03.469a4.418 4.418 0 0 1-2.391-.672c-.72-.445-1.29-1.078-1.703-1.89-.418-.813-.625-1.75-.625-2.813Zm8.125.047c0-.633-.125-1.176-.375-1.625a2.675 2.675 0 0 0-2.36-1.406 2.65 2.65 0 0 0-2.344 1.39c-.25.45-.375.98-.375 1.594 0 .625.125 1.172.375 1.64.258.462.598.813 1.016 1.063.414.25.86.375 1.328.375.477 0 .926-.117 1.344-.36a2.606 2.606 0 0 0 1.016-1.03c.25-.458.375-1.004.375-1.641ZM149.897 78.064c-.46 0-.843-.144-1.156-.437-.304-.29-.453-.657-.453-1.094 0-.438.149-.8.453-1.094.313-.289.696-.437 1.156-.437.458 0 .836.148 1.141.437.3.293.453.656.453 1.094 0 .437-.152.805-.453 1.094-.305.293-.683.437-1.14.437Zm1.282 1.235V89.61h-2.61V79.3ZM153.076 84.408c0-1.04.207-1.961.625-2.766.414-.812.977-1.43 1.688-1.859a4.534 4.534 0 0 1 2.406-.656c.77 0 1.441.156 2.016.468.582.313 1.046.704 1.39 1.172V79.3h2.625V89.61h-2.625v-1.516c-.336.493-.797.899-1.39 1.22-.586.312-1.262.468-2.032.468a4.418 4.418 0 0 1-2.39-.672c-.711-.445-1.274-1.078-1.688-1.89-.418-.813-.625-1.75-.625-2.813Zm8.125.047c0-.633-.125-1.176-.375-1.625a2.675 2.675 0 0 0-2.36-1.406 2.65 2.65 0 0 0-2.344 1.39c-.249.45-.374.98-.374 1.594 0 .625.125 1.172.375 1.64.258.462.598.813 1.016 1.063.414.25.859.375 1.328.375.476 0 .926-.117 1.344-.36a2.606 2.606 0 0 0 1.015-1.03c.25-.458.375-1.004.375-1.641ZM170.331 89.783c-.844 0-1.605-.152-2.281-.453-.668-.313-1.2-.727-1.594-1.25a3.176 3.176 0 0 1-.64-1.735h2.64c.04.407.234.743.578 1 .344.262.77.391 1.281.391.489 0 .875-.098 1.157-.297.281-.207.422-.46.422-.765 0-.344-.172-.598-.516-.766-.336-.164-.875-.348-1.625-.547-.773-.187-1.402-.379-1.89-.578a3.235 3.235 0 0 1-1.266-.906c-.356-.407-.532-.957-.532-1.657 0-.57.16-1.093.485-1.562.332-.477.805-.852 1.422-1.125.613-.27 1.336-.406 2.172-.406 1.226 0 2.207.308 2.937.922.738.617 1.145 1.445 1.219 2.484h-2.5a1.295 1.295 0 0 0-.516-.969c-.304-.25-.71-.375-1.219-.375-.468 0-.835.09-1.093.266a.841.841 0 0 0-.375.719c0 .355.172.62.515.796.352.18.895.36 1.625.547.75.188 1.364.383 1.844.578.488.2.91.508 1.266.922.351.418.535.97.547 1.657 0 .593-.168 1.125-.5 1.593-.325.47-.793.84-1.407 1.11-.617.27-1.336.406-2.156.406Zm0 0"></path><path d="M180.333 83.095c0-1.28.285-2.425.86-3.437a6.248 6.248 0 0 1 2.359-2.36c1-.57 2.125-.859 3.375-.859 1.445 0 2.718.375 3.812 1.125 1.094.742 1.86 1.774 2.297 3.094h-3c-.305-.625-.726-1.094-1.266-1.406-.543-.313-1.168-.469-1.875-.469-.75 0-1.421.18-2.015.531a3.68 3.68 0 0 0-1.375 1.5c-.336.649-.5 1.406-.5 2.281 0 .856.164 1.61.5 2.266.332.649.789 1.149 1.375 1.5.594.356 1.265.531 2.015.531.707 0 1.332-.156 1.875-.468.54-.32.961-.79 1.266-1.407h3c-.437 1.325-1.203 2.356-2.297 3.094-1.086.742-2.355 1.11-3.812 1.11-1.25 0-2.375-.282-3.375-.844a6.262 6.262 0 0 1-2.36-2.344c-.574-1.008-.859-2.156-.859-3.438ZM199.843 89.783c-.993 0-1.883-.219-2.672-.656a4.86 4.86 0 0 1-1.875-1.875c-.45-.813-.672-1.742-.672-2.797 0-1.063.226-1.992.687-2.797a4.871 4.871 0 0 1 1.907-1.86c.812-.445 1.71-.671 2.703-.671 1 0 1.898.226 2.703.672a4.77 4.77 0 0 1 1.906 1.859c.469.805.703 1.734.703 2.797 0 1.055-.242 1.984-.719 2.797a5.046 5.046 0 0 1-1.937 1.875c-.813.437-1.727.656-2.734.656Zm0-2.281c.476 0 .925-.114 1.343-.344.414-.227.742-.57.985-1.031.25-.457.375-1.016.375-1.672 0-.977-.262-1.735-.782-2.266a2.504 2.504 0 0 0-1.875-.797c-.75 0-1.375.266-1.875.797s-.75 1.29-.75 2.266c0 .98.243 1.734.735 2.265.488.524 1.101.782 1.844.782ZM212.868 79.142c1.227 0 2.223.391 2.984 1.172.758.774 1.141 1.856 1.141 3.25v6.047h-2.61v-5.703c0-.813-.21-1.438-.624-1.875-.407-.445-.965-.672-1.672-.672-.719 0-1.29.227-1.703.672-.418.437-.625 1.062-.625 1.875v5.703h-2.61V79.3h2.61v1.28a3.652 3.652 0 0 1 1.328-1.046 4.077 4.077 0 0 1 1.781-.39ZM11.182 94.74v2.11H5.76v3.328h4.157v2.063H5.76v5.5H3.151v-13ZM17.602 107.913c-.992 0-1.883-.22-2.672-.657a4.86 4.86 0 0 1-1.875-1.875c-.45-.812-.672-1.742-.672-2.796 0-1.063.227-1.993.688-2.797a4.871 4.871 0 0 1 1.906-1.86c.813-.445 1.711-.672 2.703-.672 1 0 1.899.227 2.703.672a4.77 4.77 0 0 1 1.907 1.86c.468.804.703 1.734.703 2.797 0 1.054-.243 1.984-.72 2.796a5.046 5.046 0 0 1-1.937 1.875c-.812.438-1.726.657-2.734.657Zm0-2.282c.477 0 .926-.113 1.344-.343.414-.227.742-.57.984-1.032.25-.457.375-1.015.375-1.671 0-.977-.262-1.735-.781-2.266a2.504 2.504 0 0 0-1.875-.797c-.75 0-1.375.266-1.875.797s-.75 1.289-.75 2.266c0 .98.242 1.734.734 2.265.489.524 1.102.781 1.844.781Zm2.219-11.015-4.281 1.953v-1.86l4.28-2.218ZM27.518 99.022c.332-.539.77-.969 1.313-1.281.539-.313 1.16-.469 1.859-.469v2.734h-.688c-.824 0-1.445.196-1.859.579-.418.386-.625 1.058-.625 2.015v5.14h-2.61V97.429h2.61ZM45.247 97.272c1.27 0 2.29.39 3.063 1.172.78.773 1.171 1.855 1.171 3.25v6.047h-2.609v-5.703c0-.801-.21-1.414-.625-1.844-.406-.426-.965-.64-1.672-.64-.71 0-1.273.214-1.687.64-.407.43-.61 1.043-.61 1.844v5.703h-2.61v-5.703c0-.801-.21-1.414-.624-1.844-.406-.426-.965-.64-1.672-.64-.719 0-1.289.214-1.703.64-.418.43-.625 1.043-.625 1.844v5.703h-2.61V97.428h2.61v1.235a3.51 3.51 0 0 1 1.297-1.016 4.022 4.022 0 0 1 1.734-.375c.813 0 1.531.172 2.156.516a3.715 3.715 0 0 1 1.485 1.453c.332-.594.816-1.067 1.453-1.422a4.162 4.162 0 0 1 2.078-.547ZM61.707 97.428v10.313h-2.625v-1.297c-.344.437-.79.789-1.328 1.047a4.066 4.066 0 0 1-1.75.375c-.813 0-1.531-.164-2.156-.5-.618-.344-1.102-.848-1.454-1.516-.355-.664-.53-1.457-.53-2.375v-6.047h2.609v5.672c0 .824.203 1.453.609 1.89.414.438.976.657 1.687.657.72 0 1.282-.219 1.688-.656.414-.438.625-1.067.625-1.89v-5.673ZM66.88 93.96v13.78h-2.61V93.96ZM68.777 102.538c0-1.04.207-1.961.625-2.766.414-.812.977-1.43 1.687-1.86a4.534 4.534 0 0 1 2.407-.656c.77 0 1.441.157 2.015.47.582.312 1.047.702 1.391 1.171v-1.469h2.625v10.313h-2.625v-1.516c-.336.492-.797.899-1.39 1.219-.587.312-1.262.469-2.032.469a4.418 4.418 0 0 1-2.39-.672c-.711-.446-1.274-1.078-1.688-1.89-.418-.813-.625-1.75-.625-2.813Zm8.125.047c0-.633-.125-1.176-.375-1.625a2.675 2.675 0 0 0-2.36-1.406 2.65 2.65 0 0 0-2.344 1.39c-.25.45-.374.98-.374 1.594 0 .625.125 1.172.375 1.64.258.461.597.813 1.015 1.063.415.25.86.375 1.329.375.476 0 .925-.117 1.343-.36a2.606 2.606 0 0 0 1.016-1.03c.25-.458.375-1.005.375-1.641ZM85.887 101.225c0-1.281.285-2.426.86-3.437a6.248 6.248 0 0 1 2.359-2.36c1-.57 2.125-.86 3.375-.86 1.445 0 2.719.376 3.813 1.126 1.093.742 1.859 1.773 2.296 3.094h-3c-.304-.625-.726-1.094-1.265-1.407-.543-.312-1.168-.468-1.875-.468-.75 0-1.422.18-2.016.53a3.68 3.68 0 0 0-1.375 1.5c-.336.65-.5 1.407-.5 2.282 0 .856.164 1.61.5 2.266.332.648.79 1.148 1.375 1.5.594.355 1.266.531 2.016.531.707 0 1.332-.156 1.875-.469.539-.32.96-.789 1.265-1.406h3c-.437 1.324-1.203 2.356-2.296 3.094-1.086.742-2.356 1.11-3.813 1.11-1.25 0-2.375-.282-3.375-.845a6.262 6.262 0 0 1-2.36-2.343c-.574-1.008-.859-2.157-.859-3.438ZM100.147 102.538c0-1.04.207-1.961.625-2.766.414-.812.976-1.43 1.687-1.86a4.534 4.534 0 0 1 2.407-.656c.77 0 1.441.157 2.015.47.582.312 1.047.702 1.39 1.171v-1.469h2.626v10.313h-2.625v-1.516c-.336.492-.797.899-1.39 1.219-.587.312-1.262.469-2.032.469a4.418 4.418 0 0 1-2.39-.672c-.712-.446-1.274-1.078-1.688-1.89-.418-.813-.625-1.75-.625-2.813Zm8.125.047c0-.633-.125-1.176-.375-1.625a2.675 2.675 0 0 0-2.36-1.406 2.65 2.65 0 0 0-2.344 1.39c-.25.45-.374.98-.374 1.594 0 .625.125 1.172.375 1.64.258.461.597.813 1.015 1.063.414.25.86.375 1.329.375.476 0 .925-.117 1.343-.36a2.606 2.606 0 0 0 1.016-1.03c.25-.458.375-1.005.375-1.641ZM117.402 107.913c-.844 0-1.606-.153-2.281-.453-.668-.313-1.2-.727-1.594-1.25a3.176 3.176 0 0 1-.64-1.735h2.64c.039.406.234.742.578 1 .344.262.77.39 1.281.39.488 0 .875-.097 1.156-.296.282-.207.422-.461.422-.766 0-.343-.172-.597-.515-.765-.336-.164-.875-.348-1.625-.547-.774-.188-1.403-.38-1.89-.578a3.235 3.235 0 0 1-1.267-.907c-.355-.406-.53-.957-.53-1.656 0-.57.16-1.094.484-1.562.332-.477.804-.852 1.421-1.125.614-.27 1.336-.407 2.172-.407 1.227 0 2.207.309 2.938.922.738.617 1.144 1.446 1.219 2.485h-2.5a1.295 1.295 0 0 0-.516-.97c-.305-.25-.711-.374-1.219-.374-.469 0-.836.09-1.094.266a.841.841 0 0 0-.375.718c0 .356.172.621.516.797.352.18.895.36 1.625.547.75.188 1.363.383 1.844.578.488.2.91.508 1.265.922.352.418.536.969.547 1.656 0 .594-.168 1.125-.5 1.594-.324.469-.793.84-1.406 1.11-.617.269-1.336.406-2.156.406ZM133.195 102.366c0 .367-.027.699-.078 1h-7.532c.063.742.32 1.324.782 1.75.457.418 1.02.625 1.687.625.969 0 1.656-.41 2.063-1.235h2.812a4.69 4.69 0 0 1-1.703 2.454c-.844.636-1.883.953-3.11.953-1 0-1.898-.22-2.687-.657a4.782 4.782 0 0 1-1.844-1.875c-.437-.812-.656-1.742-.656-2.796 0-1.07.219-2.008.656-2.813a4.51 4.51 0 0 1 1.829-1.86c.78-.437 1.68-.656 2.703-.656.976 0 1.851.215 2.625.641a4.39 4.39 0 0 1 1.812 1.797c.426.773.64 1.664.64 2.672Zm-2.703-.75c-.012-.676-.25-1.211-.719-1.61-.469-.406-1.047-.609-1.734-.609-.649 0-1.196.2-1.641.594-.438.387-.703.93-.797 1.625ZM137.704 99.022c.332-.539.77-.969 1.313-1.281.539-.313 1.16-.469 1.859-.469v2.734h-.688c-.824 0-1.445.196-1.859.579-.418.386-.625 1.058-.625 2.015v5.14h-2.61V97.429h2.61ZM141.949 102.538c0-1.04.207-1.961.625-2.766.414-.812.976-1.43 1.687-1.86a4.534 4.534 0 0 1 2.406-.656c.77 0 1.442.157 2.016.47.582.312 1.047.702 1.39 1.171v-1.469h2.626v10.313h-2.625v-1.516c-.336.492-.797.899-1.391 1.219-.586.312-1.262.469-2.031.469a4.418 4.418 0 0 1-2.39-.672c-.712-.446-1.274-1.078-1.688-1.89-.418-.813-.625-1.75-.625-2.813Zm8.125.047c0-.633-.125-1.176-.375-1.625a2.675 2.675 0 0 0-2.36-1.406 2.65 2.65 0 0 0-2.344 1.39c-.25.45-.374.98-.374 1.594 0 .625.125 1.172.375 1.64.257.461.597.813 1.015 1.063.414.25.86.375 1.328.375.477 0 .926-.117 1.344-.36a2.606 2.606 0 0 0 1.016-1.03c.25-.458.375-1.005.375-1.641ZM170.809 107.74h-2.61l-5.906-8.921v8.922h-2.609V94.725h2.61l5.906 8.938v-8.938h2.609ZM172.704 102.538c0-1.04.207-1.961.625-2.766.414-.812.976-1.43 1.687-1.86a4.534 4.534 0 0 1 2.407-.656c.77 0 1.441.157 2.015.47.582.312 1.047.702 1.39 1.171v-1.469h2.626v10.313h-2.625v-1.516c-.336.492-.797.899-1.39 1.219-.587.312-1.262.469-2.032.469a4.418 4.418 0 0 1-2.39-.672c-.712-.446-1.274-1.078-1.688-1.89-.418-.813-.625-1.75-.625-2.813Zm8.125.047c0-.633-.125-1.176-.375-1.625a2.675 2.675 0 0 0-2.36-1.406 2.65 2.65 0 0 0-2.344 1.39c-.25.45-.374.98-.374 1.594 0 .625.125 1.172.375 1.64.258.461.597.813 1.015 1.063.414.25.86.375 1.328.375.477 0 .926-.117 1.344-.36a2.606 2.606 0 0 0 1.016-1.03c.25-.458.375-1.005.375-1.641ZM189.053 99.569v4.984c0 .356.082.61.25.766.164.148.445.219.843.219h1.203v2.203h-1.64c-2.2 0-3.297-1.067-3.297-3.203v-4.97h-1.219v-2.14h1.219v-2.562h2.64v2.562h2.297v2.14ZM202.983 97.428v10.313h-2.625v-1.297c-.343.437-.789.789-1.328 1.047a4.066 4.066 0 0 1-1.75.375c-.812 0-1.53-.164-2.156-.5-.617-.344-1.102-.848-1.453-1.516-.356-.664-.531-1.457-.531-2.375v-6.047h2.61v5.672c0 .824.202 1.453.608 1.89.414.438.977.657 1.688.657.719 0 1.281-.219 1.687-.656.414-.438.625-1.067.625-1.89v-5.673ZM208.156 99.022c.332-.539.77-.969 1.313-1.281.539-.313 1.16-.469 1.859-.469v2.734h-.688c-.824 0-1.445.196-1.859.579-.418.386-.625 1.058-.625 2.015v5.14h-2.61V97.429h2.61ZM212.4 102.538c0-1.04.208-1.961.626-2.766.414-.812.976-1.43 1.687-1.86a4.534 4.534 0 0 1 2.406-.656c.77 0 1.442.157 2.016.47.582.312 1.047.702 1.39 1.171v-1.469h2.626v10.313h-2.625v-1.516c-.336.492-.797.899-1.391 1.219-.586.312-1.262.469-2.031.469a4.418 4.418 0 0 1-2.39-.672c-.712-.446-1.274-1.078-1.688-1.89-.418-.813-.625-1.75-.625-2.813Zm8.126.047c0-.633-.125-1.176-.375-1.625a2.675 2.675 0 0 0-2.36-1.406 2.65 2.65 0 0 0-2.344 1.39c-.25.45-.374.98-.374 1.594 0 .625.125 1.172.375 1.64.257.461.597.813 1.015 1.063.414.25.86.375 1.328.375.477 0 .926-.117 1.344-.36a2.606 2.606 0 0 0 1.016-1.03c.25-.458.375-1.005.375-1.641ZM228.312 93.96v13.78h-2.61V93.96Zm0 0" fill="#ff1616"></path></svg>