<svg xmlns="http://www.w3.org/2000/svg" width="542" viewBox="0 0 406.5 107.25" height="143"><path d="m27.89 3.67-.282 4.875h-2.172l-.312-4.875Zm3.906 0-.297 4.875H29.31l-.296-4.875ZM39.765 22.155c-1.125 0-2.137-.188-3.032-.563-.898-.383-1.605-.937-2.125-1.656-.523-.719-.789-1.567-.797-2.547h3.438c.05.656.285 1.18.703 1.563.426.375 1.004.562 1.734.562.75 0 1.336-.176 1.766-.531.438-.364.656-.836.656-1.422 0-.469-.148-.852-.437-1.156a3.065 3.065 0 0 0-1.094-.735c-.437-.176-1.043-.367-1.812-.578-1.032-.312-1.875-.613-2.532-.906a4.49 4.49 0 0 1-1.672-1.36c-.468-.601-.703-1.41-.703-2.421 0-.946.235-1.774.703-2.485.477-.707 1.145-1.25 2-1.625.864-.375 1.848-.562 2.954-.562 1.644 0 2.984.406 4.015 1.219 1.04.804 1.613 1.921 1.719 3.359h-3.531a1.817 1.817 0 0 0-.703-1.36c-.438-.363-1.016-.546-1.735-.546-.625 0-1.125.164-1.5.484-.375.313-.562.777-.562 1.39 0 .43.14.79.422 1.079a3.23 3.23 0 0 0 1.046.687c.426.18 1.02.383 1.782.61 1.039.304 1.89.609 2.547.922a4.47 4.47 0 0 1 1.703 1.375c.476.617.718 1.417.718 2.406a4.55 4.55 0 0 1-.671 2.39c-.438.73-1.09 1.313-1.954 1.75-.855.438-1.87.657-3.046.657ZM53.86 22.202c-1.23 0-2.336-.27-3.313-.813a5.864 5.864 0 0 1-2.312-2.297c-.555-1-.828-2.148-.828-3.453 0-1.3.285-2.445.86-3.437a5.93 5.93 0 0 1 2.343-2.313c1-.55 2.113-.828 3.344-.828 1.226 0 2.336.277 3.328.828a5.943 5.943 0 0 1 2.36 2.313c.57.992.858 2.136.858 3.437 0 1.305-.296 2.453-.89 3.453a6.034 6.034 0 0 1-2.39 2.297c-1 .543-2.122.813-3.36.813Zm0-2.797c.582 0 1.129-.141 1.64-.422.508-.29.915-.719 1.22-1.281.312-.563.468-1.25.468-2.063 0-1.207-.32-2.133-.953-2.781a3.123 3.123 0 0 0-2.328-.985c-.918 0-1.688.329-2.313.985-.617.648-.922 1.574-.922 2.781 0 1.21.301 2.14.907 2.797.601.648 1.363.969 2.28.969ZM56.594 5.81l-5.281 2.406V5.92l5.281-2.734ZM66.074 4.998v17h-3.219v-17ZM74.896 22.202c-1.23 0-2.336-.27-3.312-.813a5.864 5.864 0 0 1-2.313-2.297c-.555-1-.828-2.148-.828-3.453 0-1.3.285-2.445.86-3.437a5.93 5.93 0 0 1 2.343-2.313c1-.55 2.113-.828 3.344-.828 1.226 0 2.336.277 3.328.828a5.943 5.943 0 0 1 2.36 2.313c.57.992.859 2.136.859 3.437 0 1.305-.297 2.453-.89 3.453a6.034 6.034 0 0 1-2.392 2.297c-1 .543-2.12.813-3.359.813Zm0-2.797c.582 0 1.129-.141 1.64-.422.509-.29.915-.719 1.22-1.281.312-.563.468-1.25.468-2.063 0-1.207-.32-2.133-.953-2.781a3.123 3.123 0 0 0-2.328-.985c-.918 0-1.688.329-2.313.985-.617.648-.921 1.574-.921 2.781 0 1.21.3 2.14.906 2.797.601.648 1.363.969 2.281.969ZM100.28 5.967v2.594h-4.282v13.437H92.78V8.561h-4.265V5.967ZM108.265 22.202c-1.23 0-2.336-.27-3.313-.813a5.864 5.864 0 0 1-2.312-2.297c-.555-1-.828-2.148-.828-3.453 0-1.3.285-2.445.86-3.437a5.93 5.93 0 0 1 2.343-2.313c1-.55 2.113-.828 3.344-.828 1.226 0 2.336.277 3.328.828a5.943 5.943 0 0 1 2.36 2.313c.57.992.858 2.136.858 3.437 0 1.305-.296 2.453-.89 3.453a6.034 6.034 0 0 1-2.39 2.297c-1 .543-2.122.813-3.36.813Zm0-2.797c.582 0 1.129-.141 1.64-.422.508-.29.915-.719 1.22-1.281.312-.563.468-1.25.468-2.063 0-1.207-.32-2.133-.953-2.781a3.123 3.123 0 0 0-2.328-.985c-.918 0-1.688.329-2.313.985-.617.648-.922 1.574-.922 2.781 0 1.21.301 2.14.907 2.797.601.648 1.363.969 2.28.969ZM133.073 9.092c1.562 0 2.816.48 3.766 1.438.957.96 1.437 2.293 1.437 4v7.468h-3.203v-7.03c0-.99-.258-1.75-.766-2.282-.5-.531-1.187-.797-2.062-.797-.875 0-1.57.266-2.078.797-.512.531-.766 1.293-.766 2.281v7.031h-3.219v-7.03c0-.99-.257-1.75-.765-2.282-.5-.531-1.188-.797-2.063-.797-.886 0-1.59.266-2.11.797-.51.531-.765 1.293-.765 2.281v7.031h-3.219V9.28h3.22v1.53a4.294 4.294 0 0 1 1.593-1.25 4.95 4.95 0 0 1 2.156-.468c.989 0 1.875.215 2.656.64a4.39 4.39 0 0 1 1.813 1.798c.414-.739 1.02-1.328 1.812-1.766a5.134 5.134 0 0 1 2.563-.672ZM140.516 15.592c0-1.289.254-2.43.765-3.422.508-1 1.203-1.765 2.078-2.297a5.558 5.558 0 0 1 2.954-.812c.957 0 1.789.195 2.5.578.707.387 1.273.871 1.703 1.453V9.28h3.25v12.718h-3.25V20.14c-.407.594-.977 1.09-1.703 1.484-.73.383-1.57.579-2.516.579-1.074 0-2.055-.274-2.938-.829-.875-.55-1.57-1.328-2.078-2.328-.511-1-.765-2.148-.765-3.453Zm10 .047c0-.781-.153-1.445-.453-2a3.267 3.267 0 0 0-2.922-1.75c-.594 0-1.149.148-1.657.438-.5.292-.906.718-1.218 1.28-.313.555-.469 1.216-.469 1.985 0 .762.156 1.434.469 2.016.312.574.722 1.011 1.234 1.312a3.13 3.13 0 0 0 1.64.453c.602 0 1.165-.144 1.688-.437.52-.3.93-.727 1.235-1.281.3-.563.453-1.235.453-2.016ZM165.536 5.967v9.922c0 1.086.282 1.918.844 2.5.57.574 1.375.86 2.406.86 1.04 0 1.844-.286 2.407-.86.562-.582.843-1.414.843-2.5V5.967h3.25v9.906c0 1.356-.297 2.508-.89 3.454a5.695 5.695 0 0 1-2.375 2.125c-.98.468-2.074.703-3.282.703-1.199 0-2.289-.235-3.265-.703a5.513 5.513 0 0 1-2.313-2.125c-.562-.946-.843-2.098-.843-3.454V5.967ZM185.434 9.092c1.508 0 2.734.48 3.672 1.438.937.96 1.406 2.293 1.406 4v7.468h-3.219v-7.03c0-1.009-.258-1.786-.765-2.329-.5-.54-1.188-.812-2.063-.812-.887 0-1.59.273-2.11.812-.511.543-.765 1.32-.765 2.328v7.031h-3.219V9.28h3.22v1.578c.425-.551.972-.985 1.64-1.297.664-.313 1.398-.469 2.203-.469ZM213.424 5.967l-5.875 16.031h-3.907l-5.875-16.03h3.438l4.406 12.75 4.39-12.75ZM214.533 15.592c0-1.289.254-2.43.766-3.422.508-1 1.203-1.765 2.078-2.297a5.558 5.558 0 0 1 2.953-.812c.957 0 1.79.195 2.5.578.707.387 1.273.871 1.703 1.453V9.28h3.25v12.718h-3.25V20.14c-.406.594-.976 1.09-1.703 1.484-.73.383-1.57.579-2.516.579-1.074 0-2.054-.274-2.937-.829-.875-.55-1.57-1.328-2.078-2.328-.512-1-.766-2.148-.766-3.453Zm10 .047c0-.781-.152-1.445-.453-2a3.267 3.267 0 0 0-2.922-1.75c-.594 0-1.148.148-1.656.438-.5.292-.906.718-1.219 1.28-.312.555-.469 1.216-.469 1.985 0 .762.157 1.434.47 2.016.312.574.722 1.011 1.234 1.312a3.13 3.13 0 0 0 1.64.453c.602 0 1.164-.144 1.688-.437.52-.3.93-.727 1.234-1.281.3-.563.453-1.235.453-2.016ZM235.791 22.202c-1.043 0-1.98-.188-2.812-.563-.825-.375-1.477-.879-1.953-1.516a3.946 3.946 0 0 1-.797-2.14h3.25c.05.492.285.898.703 1.219.426.324.957.484 1.594.484.601 0 1.078-.125 1.421-.375.352-.25.532-.563.532-.938 0-.414-.215-.726-.641-.937-.418-.207-1.086-.43-2-.672-.96-.227-1.742-.46-2.344-.703a4.161 4.161 0 0 1-1.562-1.125c-.438-.508-.656-1.195-.656-2.063 0-.695.203-1.336.609-1.921.406-.583.988-1.04 1.75-1.375.758-.344 1.648-.516 2.672-.516 1.52 0 2.726.383 3.625 1.14.906.762 1.406 1.782 1.5 3.063h-3.078c-.043-.5-.25-.895-.625-1.187-.375-.301-.883-.454-1.516-.454-.574 0-1.023.11-1.344.329a.997.997 0 0 0-.468.875c0 .437.21.765.64.984.438.219 1.102.445 2 .672.926.23 1.688.469 2.281.719.594.242 1.11.62 1.547 1.14.438.512.664 1.188.688 2.031 0 .73-.203 1.387-.61 1.97-.406.585-.992 1.042-1.75 1.374-.761.32-1.648.485-2.656.485ZM249.089 22.202c-1.23 0-2.336-.27-3.313-.813a5.864 5.864 0 0 1-2.312-2.297c-.555-1-.829-2.148-.829-3.453 0-1.3.286-2.445.86-3.437a5.93 5.93 0 0 1 2.344-2.313c1-.55 2.113-.828 3.343-.828 1.227 0 2.336.277 3.328.828a5.943 5.943 0 0 1 2.36 2.313c.57.992.86 2.136.86 3.437 0 1.305-.298 2.453-.891 3.453a6.034 6.034 0 0 1-2.391 2.297c-1 .543-2.121.813-3.36.813Zm0-2.797c.582 0 1.128-.141 1.64-.422.508-.29.914-.719 1.219-1.281.312-.563.469-1.25.469-2.063 0-1.207-.32-2.133-.953-2.781a3.123 3.123 0 0 0-2.329-.985c-.918 0-1.687.329-2.312.985-.617.648-.922 1.574-.922 2.781 0 1.21.3 2.14.906 2.797.602.648 1.364.969 2.282.969ZM273.394 18.936h-6.39l-1.063 3.062h-3.375l5.765-16.062h3.75l5.766 16.062h-3.406Zm-.875-2.563L270.19 9.67l-2.313 6.703ZM283.212 4.998v17h-3.219v-17ZM297.453 5.967c1.687 0 3.164.328 4.437.985 1.281.656 2.27 1.593 2.969 2.812.695 1.219 1.047 2.633 1.047 4.234 0 1.618-.352 3.028-1.047 4.235-.7 1.199-1.688 2.125-2.969 2.781-1.273.656-2.75.984-4.437.984h-5.61V5.968Zm-.11 13.297c1.676 0 2.973-.457 3.891-1.375.926-.914 1.39-2.21 1.39-3.89 0-1.665-.464-2.97-1.39-3.907-.918-.945-2.215-1.422-3.89-1.422h-2.282v10.594ZM311.669 9.28v12.718h-3.219V9.28Zm.906-3.313-5.281 2.406V6.077l5.281-2.735ZM314.157 15.592c0-1.289.254-2.43.766-3.422.507-1 1.203-1.765 2.078-2.297a5.558 5.558 0 0 1 2.953-.812c.957 0 1.789.195 2.5.578.707.387 1.273.871 1.703 1.453V9.28h3.25v12.718h-3.25V20.14c-.406.594-.977 1.09-1.703 1.484-.73.383-1.57.579-2.516.579-1.074 0-2.054-.274-2.937-.829-.875-.55-1.57-1.328-2.078-2.328-.512-1-.766-2.148-.766-3.453Zm10 .047c0-.781-.152-1.445-.453-2a3.267 3.267 0 0 0-2.922-1.75c-.594 0-1.148.148-1.656.438-.5.292-.906.718-1.219 1.28-.312.555-.469 1.216-.469 1.985 0 .762.157 1.434.469 2.016.313.574.723 1.011 1.234 1.312a3.13 3.13 0 0 0 1.641.453c.602 0 1.164-.144 1.688-.437.519-.3.93-.727 1.234-1.281.3-.563.453-1.235.453-2.016ZM348.193 9.28l-7.89 18.734h-3.422l2.765-6.344-5.109-12.39h3.61l3.28 8.89 3.344-8.89ZM366.288 5.967v2.594h-4.282v13.437h-3.218V8.561h-4.266V5.967ZM380.632 9.28v12.718h-3.234V20.39c-.418.555-.961.984-1.625 1.297a5.057 5.057 0 0 1-2.172.469c-.992 0-1.871-.207-2.64-.625-.762-.426-1.36-1.047-1.797-1.86-.438-.82-.657-1.8-.657-2.937V9.28h3.219v7c0 1.011.25 1.789.75 2.328.508.543 1.203.812 2.078.812.883 0 1.578-.27 2.078-.812.508-.54.766-1.317.766-2.328v-7ZM35.571 32.067v16.031h-3.219V37.676l-4.297 10.422h-2.422l-4.328-10.422v10.422h-3.218V32.067h3.656l5.11 11.922 5.093-11.922ZM50.56 41.458c0 .46-.027.875-.078 1.25H41.17c.082.917.406 1.636.969 2.156.562.523 1.258.781 2.093.781 1.188 0 2.036-.516 2.547-1.547h3.47a5.807 5.807 0 0 1-2.11 3.031c-1.043.782-2.324 1.172-3.844 1.172-1.219 0-2.32-.27-3.297-.812a5.676 5.676 0 0 1-2.266-2.297c-.542-1-.812-2.149-.812-3.453 0-1.32.266-2.477.797-3.469a5.5 5.5 0 0 1 2.25-2.297c.969-.539 2.078-.812 3.328-.812 1.207 0 2.289.261 3.25.78a5.467 5.467 0 0 1 2.219 2.22c.531.96.797 2.058.797 3.297Zm-3.328-.922c-.011-.82-.308-1.485-.89-1.985-.586-.5-1.297-.75-2.14-.75-.794 0-1.466.246-2.016.735-.543.48-.871 1.148-.985 2ZM56.652 38.02v6.156c0 .43.102.742.313.938.207.187.554.281 1.046.281h1.485v2.703H57.48c-2.71 0-4.062-1.316-4.062-3.953V38.02h-1.516v-2.64h1.516v-3.157h3.234v3.156h2.844v2.641ZM61 41.692c0-1.29.254-2.43.766-3.422.508-1 1.203-1.766 2.078-2.297a5.558 5.558 0 0 1 2.953-.812c.957 0 1.79.195 2.5.578.707.386 1.273.87 1.703 1.453v-1.813h3.25V48.1H71v-1.86c-.406.594-.976 1.09-1.703 1.484-.73.383-1.57.578-2.516.578-1.074 0-2.054-.273-2.937-.828-.875-.55-1.57-1.328-2.078-2.328-.512-1-.766-2.148-.766-3.453Zm10 .047c0-.781-.152-1.446-.453-2a3.267 3.267 0 0 0-2.922-1.75c-.594 0-1.148.148-1.656.437-.5.293-.906.719-1.219 1.282-.312.554-.469 1.214-.469 1.984 0 .762.157 1.433.47 2.016.312.574.722 1.011 1.234 1.312a3.13 3.13 0 0 0 1.64.453c.602 0 1.164-.144 1.688-.437.52-.301.93-.727 1.234-1.282.3-.562.453-1.234.453-2.015ZM80.602 37.239c.414-.614.988-1.114 1.719-1.5.726-.383 1.554-.578 2.484-.578 1.094 0 2.078.273 2.953.812.883.531 1.582 1.293 2.094 2.281.508.993.766 2.137.766 3.438 0 1.305-.258 2.453-.766 3.453-.512 1-1.211 1.777-2.094 2.328-.875.555-1.86.828-2.953.828-.95 0-1.781-.187-2.5-.562-.71-.375-1.277-.86-1.703-1.453v1.812h-3.219v-17h3.219Zm6.734 4.453c0-.77-.156-1.43-.468-1.984a3.237 3.237 0 0 0-1.25-1.282 3.312 3.312 0 0 0-1.657-.437c-.586 0-1.132.152-1.64.453-.512.305-.93.734-1.25 1.297-.313.562-.469 1.23-.469 2 0 .761.156 1.43.469 2 .32.562.738.996 1.25 1.297a3.226 3.226 0 0 0 1.64.437c.594 0 1.145-.148 1.657-.453.52-.3.937-.734 1.25-1.297.312-.57.468-1.25.468-2.031ZM98.61 48.301c-1.23 0-2.336-.27-3.313-.812a5.864 5.864 0 0 1-2.312-2.297c-.555-1-.828-2.149-.828-3.453 0-1.301.285-2.446.86-3.438a5.93 5.93 0 0 1 2.343-2.312c1-.551 2.113-.828 3.344-.828 1.226 0 2.336.277 3.328.828a5.943 5.943 0 0 1 2.36 2.312c.57.992.859 2.137.859 3.438 0 1.304-.297 2.453-.891 3.453a6.034 6.034 0 0 1-2.39 2.297c-1 .543-2.122.812-3.36.812Zm0-2.797c.582 0 1.129-.14 1.64-.421.508-.29.915-.72 1.22-1.282.312-.562.468-1.25.468-2.062 0-1.207-.32-2.133-.953-2.781a3.123 3.123 0 0 0-2.328-.985c-.918 0-1.688.328-2.313.985-.617.648-.922 1.574-.922 2.78 0 1.212.301 2.141.907 2.798.601.648 1.363.968 2.281.968ZM110.824 31.098v17h-3.218v-17ZM115.63 33.864c-.574 0-1.046-.176-1.421-.531-.375-.364-.563-.817-.563-1.36 0-.531.188-.973.563-1.328.375-.363.847-.547 1.422-.547.562 0 1.03.184 1.406.547.375.355.562.797.562 1.328 0 .543-.187.996-.562 1.36-.375.355-.844.53-1.406.53Zm1.579 1.515V48.1h-3.219v-12.72ZM125.25 48.301c-1.044 0-1.981-.187-2.813-.562-.824-.375-1.477-.88-1.953-1.516a3.946 3.946 0 0 1-.797-2.14h3.25c.05.492.285.898.703 1.218.426.324.957.485 1.594.485.601 0 1.078-.125 1.422-.375.351-.25.53-.563.53-.938 0-.414-.214-.726-.64-.937-.418-.207-1.086-.43-2-.672-.96-.227-1.742-.461-2.343-.703a4.161 4.161 0 0 1-1.563-1.125c-.437-.508-.656-1.196-.656-2.063 0-.695.203-1.336.61-1.922.405-.582.987-1.039 1.75-1.375.757-.343 1.648-.515 2.671-.515 1.52 0 2.727.382 3.625 1.14.906.762 1.406 1.782 1.5 3.063h-3.078c-.043-.5-.25-.895-.625-1.188-.375-.3-.883-.453-1.516-.453-.574 0-1.023.11-1.343.328a.997.997 0 0 0-.47.875c0 .438.212.766.641.985.438.218 1.102.445 2 .672.926.23 1.688.468 2.282.718.593.242 1.109.621 1.547 1.14.437.513.664 1.188.687 2.032 0 .73-.203 1.387-.61 1.969-.406.586-.992 1.043-1.75 1.375-.761.32-1.648.484-2.656.484ZM148.703 35.192c1.563 0 2.816.48 3.766 1.437.957.961 1.437 2.293 1.437 4v7.47h-3.203v-7.032c0-.988-.258-1.75-.766-2.281-.5-.532-1.187-.797-2.062-.797-.875 0-1.57.265-2.078.797-.512.53-.766 1.293-.766 2.28v7.032h-3.219v-7.031c0-.988-.257-1.75-.765-2.281-.5-.532-1.188-.797-2.063-.797-.886 0-1.59.265-2.11.797-.51.53-.765 1.293-.765 2.28v7.032h-3.218V35.38h3.218v1.532a4.294 4.294 0 0 1 1.594-1.25 4.95 4.95 0 0 1 2.156-.47c.989 0 1.875.216 2.657.642a4.39 4.39 0 0 1 1.812 1.796c.414-.738 1.02-1.328 1.813-1.765a5.134 5.134 0 0 1 2.562-.672ZM162.615 48.301c-1.231 0-2.336-.27-3.313-.812a5.864 5.864 0 0 1-2.312-2.297c-.555-1-.829-2.149-.829-3.453 0-1.301.286-2.446.86-3.438a5.93 5.93 0 0 1 2.344-2.312c1-.551 2.113-.828 3.343-.828 1.227 0 2.336.277 3.328.828a5.943 5.943 0 0 1 2.36 2.312c.57.992.86 2.137.86 3.438 0 1.304-.298 2.453-.891 3.453a6.034 6.034 0 0 1-2.391 2.297c-1 .543-2.121.812-3.36.812Zm0-2.797c.582 0 1.128-.14 1.64-.421.508-.29.914-.72 1.219-1.282.312-.562.469-1.25.469-2.062 0-1.207-.32-2.133-.953-2.781a3.123 3.123 0 0 0-2.329-.985c-.918 0-1.687.328-2.312.985-.617.648-.922 1.574-.922 2.78 0 1.212.3 2.141.906 2.798.602.648 1.364.968 2.282.968ZM182.623 48.254c-1.125 0-2.137-.187-3.031-.562-.899-.383-1.606-.938-2.125-1.656-.524-.72-.79-1.567-.797-2.547h3.437c.051.656.285 1.18.703 1.562.426.375 1.004.563 1.735.563.75 0 1.336-.176 1.765-.531.438-.364.657-.836.657-1.422 0-.47-.149-.852-.438-1.157a3.065 3.065 0 0 0-1.094-.734c-.437-.176-1.043-.367-1.812-.578-1.031-.313-1.875-.613-2.531-.906a4.49 4.49 0 0 1-1.672-1.36c-.47-.601-.703-1.41-.703-2.422 0-.945.234-1.773.703-2.484.476-.707 1.144-1.25 2-1.625.863-.375 1.847-.562 2.953-.562 1.644 0 2.984.406 4.015 1.218 1.04.805 1.614 1.922 1.72 3.36h-3.532a1.817 1.817 0 0 0-.703-1.36c-.438-.363-1.016-.547-1.735-.547-.625 0-1.125.164-1.5.485-.375.312-.562.777-.562 1.39 0 .43.14.79.422 1.079a3.23 3.23 0 0 0 1.047.687c.425.18 1.02.383 1.78.61 1.04.304 1.892.609 2.548.921a4.47 4.47 0 0 1 1.703 1.375c.477.617.719 1.418.719 2.407a4.55 4.55 0 0 1-.672 2.39c-.438.73-1.09 1.313-1.953 1.75-.856.438-1.871.656-3.047.656ZM202.89 41.458c0 .46-.027.875-.078 1.25h-9.313c.082.917.407 1.636.97 2.156.562.523 1.257.781 2.093.781 1.187 0 2.035-.516 2.547-1.547h3.468a5.807 5.807 0 0 1-2.109 3.031c-1.043.782-2.324 1.172-3.844 1.172-1.218 0-2.32-.27-3.297-.812a5.676 5.676 0 0 1-2.265-2.297c-.543-1-.813-2.149-.813-3.453 0-1.32.266-2.477.797-3.469a5.5 5.5 0 0 1 2.25-2.297c.969-.539 2.078-.812 3.328-.812 1.207 0 2.29.261 3.25.78a5.467 5.467 0 0 1 2.22 2.22c.53.96.796 2.058.796 3.297Zm-3.328-.922c-.012-.82-.309-1.485-.89-1.985-.587-.5-1.298-.75-2.141-.75-.793 0-1.465.246-2.016.735-.543.48-.871 1.148-.984 2ZM216.307 32.067c1.687 0 3.164.328 4.437.984 1.281.657 2.27 1.594 2.969 2.813.695 1.219 1.047 2.633 1.047 4.234 0 1.617-.352 3.027-1.047 4.235-.7 1.199-1.688 2.125-2.969 2.78-1.273.657-2.75.985-4.437.985h-5.61V32.067Zm-.11 13.297c1.676 0 2.973-.457 3.89-1.375.927-.914 1.392-2.211 1.392-3.89 0-1.665-.465-2.97-1.391-3.907-.918-.945-2.215-1.422-3.89-1.422h-2.282v10.594ZM228.804 33.864c-.574 0-1.047-.176-1.422-.531-.375-.364-.562-.817-.562-1.36 0-.531.187-.973.562-1.328.375-.363.848-.547 1.422-.547.563 0 1.031.184 1.406.547.375.355.563.797.563 1.328 0 .543-.188.996-.563 1.36-.375.355-.843.53-1.406.53Zm1.578 1.515V48.1h-3.219v-12.72ZM238.423 48.301c-1.043 0-1.98-.187-2.813-.562-.824-.375-1.476-.88-1.953-1.516a3.946 3.946 0 0 1-.797-2.14h3.25c.051.492.286.898.703 1.218.426.324.958.485 1.594.485.602 0 1.078-.125 1.422-.375.352-.25.531-.563.531-.938 0-.414-.214-.726-.64-.937-.418-.207-1.086-.43-2-.672-.961-.227-1.742-.461-2.344-.703a4.161 4.161 0 0 1-1.563-1.125c-.437-.508-.656-1.196-.656-2.063 0-.695.203-1.336.61-1.922.406-.582.988-1.039 1.75-1.375.757-.343 1.648-.515 2.671-.515 1.52 0 2.727.382 3.625 1.14.907.762 1.407 1.782 1.5 3.063h-3.078c-.043-.5-.25-.895-.625-1.188-.375-.3-.882-.453-1.515-.453-.574 0-1.024.11-1.344.328a.997.997 0 0 0-.469.875c0 .438.211.766.64.985.438.218 1.102.445 2 .672.927.23 1.688.468 2.282.718.594.242 1.11.621 1.547 1.14.437.513.664 1.188.687 2.032 0 .73-.203 1.387-.609 1.969-.406.586-.992 1.043-1.75 1.375-.762.32-1.648.484-2.656.484ZM249.283 37.208c.414-.583.988-1.067 1.718-1.454.727-.394 1.555-.593 2.485-.593 1.094 0 2.078.273 2.953.812.883.531 1.582 1.293 2.094 2.281.508.993.765 2.137.765 3.438 0 1.305-.257 2.453-.765 3.453-.512 1-1.211 1.777-2.094 2.328-.875.555-1.86.828-2.953.828-.93 0-1.75-.187-2.469-.562a5.288 5.288 0 0 1-1.734-1.453v7.875h-3.219V35.379h3.219Zm6.734 4.484c0-.77-.156-1.43-.469-1.984a3.237 3.237 0 0 0-1.25-1.282 3.312 3.312 0 0 0-1.656-.437c-.586 0-1.133.152-1.64.453-.512.305-.93.734-1.25 1.297-.313.562-.47 1.23-.47 2 0 .761.157 1.43.47 2 .32.562.738.996 1.25 1.297a3.226 3.226 0 0 0 1.64.437c.594 0 1.145-.148 1.656-.453.52-.3.938-.734 1.25-1.297.313-.57.47-1.25.47-2.031ZM260.822 41.692c0-1.29.254-2.43.766-3.422.507-1 1.203-1.766 2.078-2.297a5.558 5.558 0 0 1 2.953-.812c.957 0 1.789.195 2.5.578.707.386 1.273.87 1.703 1.453v-1.813h3.25V48.1h-3.25v-1.86c-.406.594-.977 1.09-1.703 1.484-.73.383-1.57.578-2.516.578-1.074 0-2.054-.273-2.937-.828-.875-.55-1.57-1.328-2.078-2.328-.512-1-.766-2.148-.766-3.453Zm10 .047c0-.781-.152-1.446-.453-2a3.267 3.267 0 0 0-2.922-1.75c-.594 0-1.148.148-1.656.437-.5.293-.906.719-1.219 1.282-.312.554-.469 1.214-.469 1.984 0 .762.157 1.433.469 2.016.313.574.723 1.011 1.234 1.312a3.13 3.13 0 0 0 1.641.453c.602 0 1.164-.144 1.688-.437.519-.301.93-.727 1.234-1.282.3-.562.453-1.234.453-2.015ZM280.424 37.348a4.43 4.43 0 0 1 1.625-1.578c.664-.383 1.426-.578 2.281-.578v3.375h-.844c-1.011 0-1.777.242-2.297.719-.511.468-.765 1.293-.765 2.468v6.344h-3.219V35.38h3.219ZM285.67 41.692c0-1.29.254-2.43.766-3.422.508-1 1.203-1.766 2.078-2.297a5.558 5.558 0 0 1 2.953-.812c.957 0 1.79.195 2.5.578.707.386 1.274.87 1.704 1.453v-1.813h3.25V48.1h-3.25v-1.86c-.407.594-.977 1.09-1.704 1.484-.73.383-1.57.578-2.515.578-1.074 0-2.055-.273-2.938-.828-.875-.55-1.57-1.328-2.078-2.328-.512-1-.765-2.148-.765-3.453Zm10 .047c0-.781-.152-1.446-.453-2a3.267 3.267 0 0 0-2.921-1.75c-.594 0-1.149.148-1.657.437-.5.293-.906.719-1.218 1.282-.313.554-.47 1.214-.47 1.984 0 .762.157 1.433.47 2.016.312.574.722 1.011 1.234 1.312a3.13 3.13 0 0 0 1.64.453c.602 0 1.165-.144 1.688-.437.52-.301.93-.727 1.234-1.282.301-.562.454-1.234.454-2.015ZM305.272 37.348a4.43 4.43 0 0 1 1.625-1.578c.664-.383 1.426-.578 2.282-.578v3.375h-.844c-1.012 0-1.778.242-2.297.719-.512.468-.766 1.293-.766 2.468v6.344h-3.218V35.38h3.218ZM310.52 41.692c0-1.29.253-2.43.765-3.422.508-1 1.203-1.766 2.078-2.297a5.558 5.558 0 0 1 2.953-.812c.957 0 1.789.195 2.5.578.707.386 1.273.87 1.703 1.453v-1.813h3.25V48.1h-3.25v-1.86c-.406.594-.976 1.09-1.703 1.484-.73.383-1.57.578-2.516.578-1.074 0-2.054-.273-2.937-.828-.875-.55-1.57-1.328-2.078-2.328-.512-1-.766-2.148-.766-3.453Zm10 .047c0-.781-.153-1.446-.454-2a3.267 3.267 0 0 0-2.922-1.75c-.594 0-1.148.148-1.656.437-.5.293-.906.719-1.219 1.282-.312.554-.469 1.214-.469 1.984 0 .762.157 1.433.47 2.016.312.574.722 1.011 1.233 1.312a3.13 3.13 0 0 0 1.641.453c.602 0 1.164-.144 1.688-.437.52-.301.93-.727 1.234-1.282.3-.562.453-1.234.453-2.015Zm-.423-9.672-5.281 2.406v-2.297l5.281-2.734ZM328.933 29.77l-.28 4.875h-2.173l-.312-4.875Zm3.907 0-.297 4.875h-2.188l-.297-4.875Zm0 0"></path><path d="M346.331 32.067c1.688 0 3.164.328 4.438.984 1.28.657 2.27 1.594 2.968 2.813.696 1.219 1.047 2.633 1.047 4.234 0 1.617-.351 3.027-1.047 4.235-.699 1.199-1.687 2.125-2.968 2.78-1.274.657-2.75.985-4.438.985h-5.61V32.067Zm-.11 13.297c1.676 0 2.973-.457 3.891-1.375.926-.914 1.39-2.211 1.39-3.89 0-1.665-.464-2.97-1.39-3.907-.918-.945-2.215-1.422-3.89-1.422h-2.282v10.594ZM358.828 33.864c-.574 0-1.046-.176-1.421-.531-.375-.364-.563-.817-.563-1.36 0-.531.188-.973.563-1.328.375-.363.847-.547 1.421-.547.563 0 1.032.184 1.407.547.375.355.562.797.562 1.328 0 .543-.187.996-.562 1.36-.375.355-.844.53-1.407.53Zm1.579 1.515V48.1h-3.22v-12.72ZM362.76 41.739c0-1.32.265-2.473.797-3.453a5.687 5.687 0 0 1 2.218-2.297c.957-.551 2.047-.828 3.266-.828 1.582 0 2.89.398 3.922 1.187 1.031.793 1.723 1.902 2.078 3.328h-3.469c-.187-.55-.5-.984-.937-1.297-.43-.32-.965-.484-1.61-.484-.918 0-1.648.336-2.187 1-.531.668-.797 1.617-.797 2.844 0 1.21.266 2.148.797 2.812.539.668 1.27 1 2.187 1 1.301 0 2.149-.582 2.547-1.75h3.469c-.355 1.375-1.055 2.469-2.094 3.282-1.043.812-2.344 1.218-3.906 1.218-1.219 0-2.309-.27-3.266-.812a5.639 5.639 0 0 1-2.218-2.297c-.532-.988-.797-2.14-.797-3.453ZM389.226 41.458c0 .46-.028.875-.079 1.25h-9.312c.082.917.406 1.636.969 2.156.562.523 1.257.781 2.093.781 1.188 0 2.036-.516 2.547-1.547h3.469a5.807 5.807 0 0 1-2.11 3.031c-1.042.782-2.324 1.172-3.843 1.172-1.219 0-2.32-.27-3.297-.812a5.676 5.676 0 0 1-2.266-2.297c-.543-1-.812-2.149-.812-3.453 0-1.32.266-2.477.797-3.469a5.5 5.5 0 0 1 2.25-2.297c.969-.539 2.078-.812 3.328-.812 1.207 0 2.289.261 3.25.78a5.467 5.467 0 0 1 2.219 2.22c.53.96.797 2.058.797 3.297Zm-3.329-.922c-.011-.82-.308-1.485-.89-1.985-.586-.5-1.297-.75-2.14-.75-.794 0-1.466.246-2.016.735-.543.48-.872 1.148-.985 2ZM44.063 74.198h-3.219l-7.281-11v11h-3.219V58.135h3.219l7.281 11.032V58.135h3.219ZM59.24 61.48v12.718h-3.235v-1.61c-.418.555-.961.985-1.625 1.297a5.057 5.057 0 0 1-2.172.47c-.992 0-1.871-.208-2.64-.626-.762-.426-1.36-1.047-1.797-1.86-.438-.82-.657-1.8-.657-2.937V61.48h3.22v7c0 1.012.25 1.79.75 2.328.507.543 1.202.813 2.077.813.883 0 1.578-.27 2.078-.813.508-.539.766-1.316.766-2.328v-7ZM66.154 64.12v6.156c0 .43.101.742.312.938.207.187.555.28 1.047.28h1.485v2.704h-2.016c-2.711 0-4.063-1.316-4.063-3.953V64.12h-1.515v-2.64h1.515v-3.157h3.235v3.156h2.844v2.64ZM74.533 63.448a4.43 4.43 0 0 1 1.625-1.578c.664-.383 1.426-.578 2.281-.578v3.375h-.843c-1.012 0-1.778.242-2.297.718-.512.47-.766 1.293-.766 2.47v6.343h-3.219V61.479h3.22ZM82.233 59.964c-.574 0-1.047-.176-1.422-.532-.375-.363-.562-.816-.562-1.36 0-.53.187-.972.562-1.327.375-.363.848-.547 1.422-.547.563 0 1.031.184 1.406.547.375.355.563.797.563 1.328 0 .543-.188.996-.563 1.36-.375.355-.843.53-1.406.53Zm1.578 1.515v12.719h-3.219V61.479ZM86.164 67.839c0-1.32.266-2.473.797-3.454a5.687 5.687 0 0 1 2.219-2.296c.957-.551 2.047-.829 3.266-.829 1.582 0 2.89.399 3.921 1.188 1.032.793 1.723 1.902 2.079 3.328h-3.47c-.187-.55-.5-.984-.937-1.297-.43-.32-.965-.484-1.61-.484-.917 0-1.648.336-2.187 1-.53.668-.796 1.617-.796 2.844 0 1.21.265 2.148.796 2.812.54.668 1.27 1 2.188 1 1.3 0 2.148-.582 2.547-1.75h3.469c-.356 1.375-1.055 2.469-2.094 3.281-1.043.813-2.344 1.219-3.906 1.219-1.22 0-2.309-.27-3.266-.812a5.639 5.639 0 0 1-2.219-2.297c-.531-.989-.797-2.141-.797-3.453ZM102.443 59.964c-.575 0-1.047-.176-1.422-.532-.375-.363-.563-.816-.563-1.36 0-.53.188-.972.563-1.327.375-.363.847-.547 1.422-.547.562 0 1.03.184 1.406.547.375.355.562.797.562 1.328 0 .543-.187.996-.562 1.36-.375.355-.844.53-1.406.53Zm1.578 1.515v12.719h-3.219V61.479ZM112.843 74.401c-1.23 0-2.336-.27-3.313-.812a5.864 5.864 0 0 1-2.312-2.297c-.555-1-.829-2.149-.829-3.453 0-1.301.286-2.446.86-3.438a5.93 5.93 0 0 1 2.344-2.312c1-.551 2.113-.829 3.343-.829 1.227 0 2.336.278 3.328.829a5.943 5.943 0 0 1 2.36 2.312c.57.992.86 2.137.86 3.438 0 1.304-.298 2.453-.891 3.453a6.034 6.034 0 0 1-2.391 2.297c-1 .543-2.121.812-3.36.812Zm0-2.797c.582 0 1.128-.14 1.64-.422.508-.289.914-.718 1.219-1.281.312-.562.469-1.25.469-2.062 0-1.207-.32-2.133-.953-2.782a3.123 3.123 0 0 0-2.329-.984c-.918 0-1.687.328-2.312.984-.617.649-.922 1.575-.922 2.782 0 1.21.3 2.14.906 2.796.602.649 1.364.97 2.282.97ZM128.9 61.292c1.509 0 2.735.48 3.673 1.437.937.961 1.406 2.293 1.406 4v7.469h-3.219v-7.031c0-1.008-.258-1.785-.765-2.328-.5-.54-1.188-.813-2.063-.813-.887 0-1.59.273-2.11.813-.511.543-.765 1.32-.765 2.328v7.03h-3.219V61.48h3.219v1.578c.426-.55.973-.984 1.64-1.297.665-.312 1.4-.468 2.204-.468ZM138.659 59.964c-.574 0-1.047-.176-1.422-.532-.375-.363-.562-.816-.562-1.36 0-.53.187-.972.562-1.327.375-.363.848-.547 1.422-.547.562 0 1.031.184 1.406.547.375.355.563.797.563 1.328 0 .543-.188.996-.563 1.36-.375.355-.844.53-1.406.53Zm1.578 1.515v12.719h-3.219V61.479ZM148.278 74.401c-1.043 0-1.98-.187-2.813-.562-.824-.375-1.476-.88-1.953-1.516a3.946 3.946 0 0 1-.797-2.14h3.25c.051.491.285.898.703 1.218.426.324.957.484 1.594.484.602 0 1.078-.125 1.422-.375.352-.25.531-.562.531-.937 0-.414-.215-.727-.64-.938-.418-.207-1.086-.43-2-.671-.961-.227-1.743-.461-2.344-.704a4.161 4.161 0 0 1-1.563-1.125c-.437-.507-.656-1.195-.656-2.062 0-.695.203-1.336.61-1.922.406-.582.988-1.039 1.75-1.375.757-.344 1.648-.516 2.671-.516 1.52 0 2.727.383 3.625 1.141.907.762 1.407 1.781 1.5 3.063h-3.078c-.043-.5-.25-.895-.625-1.188-.375-.3-.883-.453-1.515-.453-.575 0-1.024.11-1.344.328a.997.997 0 0 0-.469.875c0 .438.211.766.64.984.438.22 1.102.446 2 .672.927.23 1.688.469 2.282.719.594.242 1.11.621 1.547 1.14.437.512.664 1.188.687 2.032 0 .73-.203 1.387-.609 1.969-.406.586-.992 1.043-1.75 1.375-.762.32-1.648.484-2.656.484ZM159.669 64.12v6.156c0 .43.101.742.312.938.207.187.555.28 1.047.28h1.485v2.704h-2.016c-2.71 0-4.062-1.316-4.062-3.953V64.12h-1.516v-2.64h1.516v-3.157h3.234v3.156h2.844v2.64ZM164.017 67.792c0-1.29.254-2.43.766-3.422.507-1 1.203-1.766 2.078-2.297a5.558 5.558 0 0 1 2.953-.813c.957 0 1.789.196 2.5.579.707.386 1.273.87 1.703 1.453v-1.813h3.25v12.719h-3.25v-1.86c-.406.594-.977 1.09-1.703 1.485-.73.383-1.57.578-2.516.578-1.074 0-2.054-.273-2.937-.828-.875-.55-1.57-1.328-2.078-2.328-.512-1-.766-2.149-.766-3.453Zm10 .047c0-.782-.152-1.446-.453-2a3.267 3.267 0 0 0-2.922-1.75c-.594 0-1.148.148-1.656.437-.5.293-.907.719-1.219 1.281-.313.555-.469 1.215-.469 1.985 0 .761.156 1.433.469 2.015.312.575.723 1.012 1.234 1.313a3.13 3.13 0 0 0 1.641.453c.602 0 1.164-.145 1.687-.438.52-.3.93-.726 1.235-1.28.3-.563.453-1.235.453-2.016ZM197.819 77.026l-2.438-2.922c-.68.164-1.367.25-2.062.25-1.5 0-2.883-.347-4.14-1.047a7.976 7.976 0 0 1-2.985-2.937c-.742-1.25-1.11-2.66-1.11-4.235 0-1.562.368-2.968 1.11-4.218a7.878 7.878 0 0 1 2.984-2.922c1.258-.707 2.64-1.063 4.14-1.063 1.509 0 2.891.356 4.141 1.063a7.782 7.782 0 0 1 2.97 2.922c.726 1.25 1.093 2.656 1.093 4.218 0 1.43-.309 2.73-.922 3.907a7.78 7.78 0 0 1-2.469 2.843l3.688 4.141Zm-9.422-10.89c0 1.074.207 2.015.625 2.828.414.812.992 1.437 1.734 1.875.739.437 1.594.656 2.563.656.957 0 1.8-.219 2.531-.656.738-.438 1.317-1.063 1.734-1.875.415-.813.625-1.754.625-2.829 0-1.07-.21-2.007-.625-2.812-.417-.8-.996-1.414-1.734-1.844-.73-.437-1.574-.656-2.531-.656-.969 0-1.824.219-2.563.656a4.422 4.422 0 0 0-1.734 1.844c-.418.805-.625 1.742-.625 2.812ZM215.955 61.48v12.718h-3.234v-1.61c-.418.555-.961.985-1.625 1.297a5.057 5.057 0 0 1-2.172.47c-.992 0-1.871-.208-2.64-.626-.762-.426-1.36-1.047-1.798-1.86-.437-.82-.656-1.8-.656-2.937V61.48h3.219v7c0 1.012.25 1.79.75 2.328.508.543 1.203.813 2.078.813.883 0 1.578-.27 2.078-.813.508-.539.766-1.316.766-2.328v-7ZM230.948 67.557c0 .461-.028.875-.078 1.25h-9.313c.082.918.406 1.637.969 2.157.562.523 1.258.78 2.094.78 1.187 0 2.035-.515 2.547-1.546h3.468a5.807 5.807 0 0 1-2.11 3.031c-1.042.781-2.323 1.172-3.843 1.172-1.219 0-2.32-.27-3.297-.812a5.676 5.676 0 0 1-2.265-2.297c-.543-1-.813-2.149-.813-3.453 0-1.32.266-2.477.797-3.47a5.5 5.5 0 0 1 2.25-2.296c.969-.54 2.078-.813 3.328-.813 1.207 0 2.29.262 3.25.782a5.467 5.467 0 0 1 2.219 2.218c.531.961.797 2.059.797 3.297Zm-3.328-.922c-.012-.82-.309-1.484-.891-1.984-.586-.5-1.297-.75-2.14-.75-.794 0-1.465.246-2.016.734-.543.48-.871 1.149-.985 2ZM247.864 65.98c.895.167 1.633.62 2.22 1.359.581.73.874 1.57.874 2.515 0 .856-.215 1.61-.64 2.266-.418.648-1.028 1.156-1.829 1.531-.793.367-1.73.547-2.812.547h-6.922V58.167h6.625c1.082 0 2.02.18 2.813.53.789.356 1.382.845 1.78 1.47.407.625.61 1.34.61 2.14 0 .93-.25 1.711-.75 2.344-.492.625-1.148 1.07-1.969 1.328Zm-5.89-1.204h2.937c.77 0 1.36-.172 1.766-.516.414-.343.625-.836.625-1.484 0-.633-.211-1.129-.625-1.484-.406-.352-.996-.532-1.766-.532h-2.937Zm3.25 6.797c.77 0 1.375-.18 1.812-.547.438-.363.657-.883.657-1.562 0-.688-.23-1.223-.688-1.61-.46-.394-1.078-.594-1.86-.594h-3.171v4.313ZM252.71 67.792c0-1.29.253-2.43.765-3.422.508-1 1.203-1.766 2.078-2.297a5.558 5.558 0 0 1 2.953-.813c.957 0 1.79.196 2.5.579.707.386 1.274.87 1.703 1.453v-1.813h3.25v12.719h-3.25v-1.86c-.406.594-.976 1.09-1.703 1.485-.73.383-1.57.578-2.515.578-1.075 0-2.055-.273-2.938-.828-.875-.55-1.57-1.328-2.078-2.328-.512-1-.766-2.149-.766-3.453Zm10 .047c0-.782-.153-1.446-.454-2a3.267 3.267 0 0 0-2.922-1.75c-.593 0-1.148.148-1.656.437-.5.293-.906.719-1.219 1.281-.312.555-.468 1.215-.468 1.985 0 .761.156 1.433.468 2.015.313.575.723 1.012 1.235 1.313a3.13 3.13 0 0 0 1.64.453c.602 0 1.164-.145 1.688-.438.52-.3.93-.726 1.234-1.28.3-.563.453-1.235.453-2.016ZM270.733 59.964c-.586 0-1.063-.176-1.438-.532-.375-.363-.562-.816-.562-1.36 0-.53.187-.972.562-1.327.375-.363.852-.547 1.438-.547.562 0 1.023.184 1.39.547.376.355.563.797.563 1.328 0 .543-.187.996-.562 1.36-.368.355-.829.53-1.391.53Zm1.578 16.328c0 1.406-.352 2.414-1.047 3.03-.7.626-1.695.938-2.984.938h-1.438v-2.734h.922c.488 0 .832-.102 1.031-.297.196-.187.297-.496.297-.922V61.48h3.219ZM281.133 74.401c-1.23 0-2.336-.27-3.313-.812a5.864 5.864 0 0 1-2.312-2.297c-.555-1-.828-2.149-.828-3.453 0-1.301.285-2.446.86-3.438a5.93 5.93 0 0 1 2.343-2.312c1-.551 2.113-.829 3.344-.829 1.226 0 2.336.278 3.328.829a5.943 5.943 0 0 1 2.36 2.312c.57.992.859 2.137.859 3.438 0 1.304-.297 2.453-.891 3.453a6.034 6.034 0 0 1-2.39 2.297c-1 .543-2.122.812-3.36.812Zm0-2.797c.582 0 1.129-.14 1.64-.422.508-.289.915-.718 1.22-1.281.312-.562.468-1.25.468-2.062 0-1.207-.32-2.133-.953-2.782a3.123 3.123 0 0 0-2.328-.984c-.918 0-1.688.328-2.313.984-.617.649-.922 1.575-.922 2.782 0 1.21.301 2.14.907 2.796.601.649 1.363.97 2.28.97Zm2.734-13.594-5.281 2.407V58.12l5.281-2.735ZM294.844 60.417v-2.97h5.532v16.75h-3.297v-13.78ZM306.345 65.339c-1.53-.801-2.297-2.036-2.297-3.704 0-.82.207-1.57.625-2.25.426-.687 1.063-1.234 1.907-1.64.851-.406 1.894-.61 3.125-.61 1.218 0 2.254.204 3.11.61.85.406 1.487.953 1.905 1.64.414.68.625 1.43.625 2.25 0 .844-.21 1.586-.625 2.22a4.153 4.153 0 0 1-1.64 1.484c.843.367 1.5.902 1.968 1.609.477.7.72 1.531.72 2.5 0 1.043-.266 1.95-.798 2.719-.523.773-1.246 1.367-2.172 1.78-.918.415-1.949.626-3.093.626-1.149 0-2.18-.211-3.094-.625-.906-.414-1.625-1.008-2.156-1.781-.532-.77-.797-1.676-.797-2.72 0-.968.234-1.804.703-2.515.476-.718 1.14-1.25 1.984-1.593Zm5.89-3.25c0-.75-.23-1.329-.687-1.735-.449-.414-1.062-.625-1.843-.625-.774 0-1.383.211-1.828.625-.45.406-.672.996-.672 1.766 0 .687.226 1.242.687 1.656.469.406 1.07.61 1.813.61.726 0 1.332-.208 1.812-.626.477-.425.719-.984.719-1.671Zm-2.53 4.64c-.875 0-1.586.227-2.125.672-.543.45-.813 1.086-.813 1.906 0 .762.258 1.387.781 1.875.532.48 1.25.719 2.157.719.906 0 1.617-.242 2.14-.734.52-.489.782-1.11.782-1.86 0-.812-.274-1.441-.813-1.89-.531-.457-1.234-.688-2.11-.688ZM333.203 74.198l-5.844-7.14v7.14h-3.219V58.167h3.22v7.187l5.843-7.187h3.875l-6.61 7.953 6.797 8.078ZM341.007 59.964c-.574 0-1.047-.176-1.422-.532-.375-.363-.562-.816-.562-1.36 0-.53.187-.972.562-1.327.375-.363.848-.547 1.422-.547.563 0 1.031.184 1.406.547.375.355.563.797.563 1.328 0 .543-.188.996-.563 1.36-.375.355-.843.53-1.406.53Zm1.578 1.515v12.719h-3.219V61.479ZM348.97 57.198v17h-3.22v-17ZM357.791 74.401c-1.23 0-2.336-.27-3.312-.812a5.864 5.864 0 0 1-2.313-2.297c-.554-1-.828-2.149-.828-3.453 0-1.301.285-2.446.86-3.438a5.93 5.93 0 0 1 2.343-2.312c1-.551 2.114-.829 3.344-.829 1.227 0 2.336.278 3.328.829a5.943 5.943 0 0 1 2.36 2.312c.57.992.859 2.137.859 3.438 0 1.304-.297 2.453-.89 3.453a6.034 6.034 0 0 1-2.391 2.297c-1 .543-2.121.812-3.36.812Zm0-2.797c.582 0 1.13-.14 1.641-.422.508-.289.914-.718 1.219-1.281.312-.562.469-1.25.469-2.062 0-1.207-.32-2.133-.954-2.782a3.123 3.123 0 0 0-2.328-.984c-.918 0-1.687.328-2.312.984-.617.649-.922 1.575-.922 2.782 0 1.21.3 2.14.906 2.796.602.649 1.363.97 2.281.97ZM371.662 74.401c-1.043 0-1.98-.187-2.812-.562-.825-.375-1.477-.88-1.954-1.516a3.946 3.946 0 0 1-.796-2.14h3.25c.05.491.285.898.703 1.218.425.324.957.484 1.593.484.602 0 1.079-.125 1.422-.375.352-.25.532-.562.532-.937 0-.414-.215-.727-.641-.938-.418-.207-1.086-.43-2-.671-.961-.227-1.742-.461-2.344-.704a4.161 4.161 0 0 1-1.562-1.125c-.438-.507-.657-1.195-.657-2.062 0-.695.204-1.336.61-1.922.406-.582.988-1.039 1.75-1.375.758-.344 1.648-.516 2.672-.516 1.52 0 2.726.383 3.625 1.141.906.762 1.406 1.781 1.5 3.063h-3.078c-.043-.5-.25-.895-.625-1.188-.375-.3-.883-.453-1.516-.453-.574 0-1.023.11-1.344.328a.997.997 0 0 0-.469.875c0 .438.211.766.641.984.438.22 1.102.446 2 .672.926.23 1.688.469 2.281.719.594.242 1.11.621 1.547 1.14.438.512.664 1.188.688 2.032 0 .73-.203 1.387-.61 1.969-.406.586-.992 1.043-1.75 1.375-.761.32-1.648.484-2.656.484ZM16.168 84.266v2.594h-4.28v13.438h-3.22V86.86H4.403v-2.594ZM24.154 100.5c-1.23 0-2.336-.269-3.313-.812a5.864 5.864 0 0 1-2.312-2.297c-.555-1-.828-2.148-.828-3.453 0-1.3.285-2.445.859-3.437a5.93 5.93 0 0 1 2.344-2.313c1-.55 2.113-.828 3.343-.828 1.227 0 2.336.278 3.329.828a5.943 5.943 0 0 1 2.359 2.313c.57.992.86 2.137.86 3.437 0 1.305-.298 2.453-.891 3.453a6.034 6.034 0 0 1-2.39 2.297c-1 .543-2.122.813-3.36.813Zm0-2.796c.582 0 1.129-.14 1.64-.422.508-.289.914-.719 1.22-1.281.312-.563.468-1.25.468-2.063 0-1.207-.32-2.133-.953-2.78a3.123 3.123 0 0 0-2.328-.985c-.918 0-1.688.328-2.313.984-.617.648-.922 1.574-.922 2.781 0 1.211.301 2.14.906 2.797.602.649 1.364.969 2.282.969ZM48.962 87.391c1.562 0 2.816.48 3.765 1.438.958.96 1.438 2.293 1.438 4v7.469h-3.203v-7.032c0-.988-.258-1.75-.766-2.28-.5-.532-1.187-.798-2.062-.798-.875 0-1.57.266-2.078.797-.512.531-.766 1.293-.766 2.281v7.032h-3.219v-7.032c0-.988-.258-1.75-.765-2.28-.5-.532-1.188-.798-2.063-.798-.887 0-1.59.266-2.11.797-.511.531-.765 1.293-.765 2.281v7.032H33.15v-12.72h3.22v1.532a4.294 4.294 0 0 1 1.593-1.25 4.95 4.95 0 0 1 2.156-.469c.988 0 1.875.215 2.656.641a4.39 4.39 0 0 1 1.813 1.797c.414-.738 1.02-1.328 1.812-1.766a5.134 5.134 0 0 1 2.563-.672ZM56.405 93.891c0-1.289.253-2.43.765-3.421.508-1 1.203-1.766 2.078-2.297a5.558 5.558 0 0 1 2.953-.813c.957 0 1.79.195 2.5.578.707.387 1.274.871 1.704 1.453V87.58h3.25v12.719h-3.25v-1.86c-.407.594-.977 1.09-1.704 1.485-.73.382-1.57.578-2.515.578-1.074 0-2.055-.274-2.938-.828-.875-.551-1.57-1.328-2.078-2.328-.512-1-.765-2.149-.765-3.454Zm10 .047c0-.78-.153-1.445-.454-2a3.267 3.267 0 0 0-2.921-1.75c-.594 0-1.149.149-1.657.438-.5.293-.906.719-1.218 1.281-.313.555-.47 1.215-.47 1.984 0 .762.157 1.434.47 2.016.312.574.722 1.012 1.234 1.313a3.13 3.13 0 0 0 1.64.453c.602 0 1.165-.145 1.688-.438.52-.3.93-.726 1.234-1.281.301-.563.454-1.234.454-2.016ZM79.85 87.391c1.508 0 2.734.48 3.672 1.438.937.96 1.406 2.293 1.406 4v7.469H81.71v-7.032c0-1.007-.257-1.785-.765-2.328-.5-.539-1.188-.812-2.063-.812-.886 0-1.59.273-2.109.812-.512.543-.766 1.32-.766 2.328v7.032h-3.218v-12.72h3.218v1.58c.426-.552.973-.985 1.641-1.298.664-.312 1.398-.469 2.203-.469ZM87.155 93.891c0-1.289.254-2.43.766-3.421.508-1 1.207-1.766 2.094-2.297a5.642 5.642 0 0 1 2.968-.813c.82 0 1.61.184 2.36.547.75.356 1.347.836 1.797 1.438v-6.047h3.265v17H97.14v-1.89c-.399.636-.954 1.147-1.672 1.53-.719.375-1.559.563-2.516.563a5.467 5.467 0 0 1-2.937-.828c-.887-.551-1.586-1.328-2.094-2.328-.512-1-.766-2.149-.766-3.454Zm10 .047c0-.78-.152-1.445-.453-2a3.267 3.267 0 0 0-2.922-1.75c-.594 0-1.148.149-1.656.438-.5.293-.906.719-1.219 1.281-.312.555-.469 1.215-.469 1.984 0 .762.157 1.434.47 2.016.312.574.722 1.012 1.234 1.313a3.13 3.13 0 0 0 1.64.453c.602 0 1.164-.145 1.688-.438.52-.3.93-.726 1.234-1.281.3-.563.453-1.234.453-2.016ZM109.195 100.5c-1.231 0-2.336-.269-3.313-.812a5.864 5.864 0 0 1-2.312-2.297c-.555-1-.829-2.148-.829-3.453 0-1.3.286-2.445.86-3.437a5.93 5.93 0 0 1 2.344-2.313c1-.55 2.113-.828 3.343-.828 1.227 0 2.336.278 3.328.828a5.943 5.943 0 0 1 2.36 2.313c.57.992.86 2.137.86 3.437 0 1.305-.298 2.453-.891 3.453a6.034 6.034 0 0 1-2.391 2.297c-1 .543-2.121.813-3.36.813Zm0-2.796c.582 0 1.128-.14 1.64-.422.508-.289.914-.719 1.219-1.281.312-.563.469-1.25.469-2.063 0-1.207-.32-2.133-.953-2.78a3.123 3.123 0 0 0-2.329-.985c-.918 0-1.687.328-2.312.984-.617.648-.922 1.574-.922 2.781 0 1.211.3 2.14.906 2.797.602.649 1.364.969 2.282.969ZM133.562 84.266v2.594h-6.687v4.11H132v2.546h-5.125v6.782h-3.22V84.266ZM141.484 100.5c-1.23 0-2.336-.269-3.313-.812a5.864 5.864 0 0 1-2.312-2.297c-.555-1-.828-2.148-.828-3.453 0-1.3.285-2.445.86-3.437a5.93 5.93 0 0 1 2.343-2.313c1-.55 2.113-.828 3.344-.828 1.226 0 2.336.278 3.328.828a5.943 5.943 0 0 1 2.36 2.313c.57.992.858 2.137.858 3.437 0 1.305-.296 2.453-.89 3.453a6.034 6.034 0 0 1-2.39 2.297c-1 .543-2.122.813-3.36.813Zm0-2.796c.582 0 1.129-.14 1.64-.422.508-.289.915-.719 1.22-1.281.312-.563.468-1.25.468-2.063 0-1.207-.32-2.133-.953-2.78a3.123 3.123 0 0 0-2.328-.985c-.918 0-1.688.328-2.313.984-.617.648-.922 1.574-.922 2.781 0 1.211.301 2.14.907 2.797.601.649 1.363.969 2.28.969Zm2.734-13.594-5.281 2.406V84.22l5.281-2.735ZM153.698 89.548a4.43 4.43 0 0 1 1.625-1.578c.664-.383 1.426-.579 2.281-.579v3.375h-.843c-1.012 0-1.778.243-2.297.72-.512.468-.766 1.292-.766 2.468v6.344h-3.219v-12.72h3.22ZM175.57 87.391c1.563 0 2.816.48 3.766 1.438.957.96 1.437 2.293 1.437 4v7.469h-3.203v-7.032c0-.988-.258-1.75-.766-2.28-.5-.532-1.187-.798-2.062-.798-.875 0-1.57.266-2.078.797-.512.531-.766 1.293-.766 2.281v7.032h-3.219v-7.032c0-.988-.257-1.75-.765-2.28-.5-.532-1.188-.798-2.063-.798-.886 0-1.59.266-2.11.797-.51.531-.765 1.293-.765 2.281v7.032h-3.218v-12.72h3.218v1.532a4.294 4.294 0 0 1 1.594-1.25 4.95 4.95 0 0 1 2.156-.469c.989 0 1.875.215 2.657.641a4.39 4.39 0 0 1 1.812 1.797c.414-.738 1.02-1.328 1.813-1.766a5.134 5.134 0 0 1 2.562-.672ZM195.84 87.579v12.719h-3.234v-1.61c-.417.555-.96.985-1.625 1.297a5.057 5.057 0 0 1-2.171.469c-.993 0-1.871-.207-2.641-.625-.762-.426-1.36-1.047-1.797-1.86-.437-.82-.656-1.8-.656-2.937V87.58h3.219v7c0 1.012.25 1.789.75 2.328.507.543 1.203.813 2.078.813.883 0 1.578-.27 2.078-.813.508-.539.765-1.316.765-2.328v-7ZM202.224 83.298v17h-3.219v-17ZM204.577 93.891c0-1.289.254-2.43.766-3.421.508-1 1.203-1.766 2.078-2.297a5.558 5.558 0 0 1 2.953-.813c.957 0 1.79.195 2.5.578.707.387 1.274.871 1.703 1.453V87.58h3.25v12.719h-3.25v-1.86c-.406.594-.976 1.09-1.703 1.485-.73.382-1.57.578-2.516.578-1.074 0-2.054-.274-2.937-.828-.875-.551-1.57-1.328-2.078-2.328-.512-1-.766-2.149-.766-3.454Zm10 .047c0-.78-.152-1.445-.453-2a3.267 3.267 0 0 0-2.922-1.75c-.594 0-1.148.149-1.656.438-.5.293-.906.719-1.219 1.281-.312.555-.469 1.215-.469 1.984 0 .762.157 1.434.47 2.016.312.574.722 1.012 1.234 1.313a3.13 3.13 0 0 0 1.64.453c.602 0 1.164-.145 1.688-.438.52-.3.93-.726 1.234-1.281.3-.563.453-1.234.453-2.016ZM240.145 100.298h-3.219l-7.281-11v11h-3.219V84.235h3.219l7.281 11.031v-11.03h3.219ZM242.493 93.891c0-1.289.254-2.43.766-3.421.508-1 1.203-1.766 2.078-2.297a5.558 5.558 0 0 1 2.953-.813c.957 0 1.789.195 2.5.578.707.387 1.273.871 1.703 1.453V87.58h3.25v12.719h-3.25v-1.86c-.406.594-.976 1.09-1.703 1.485-.73.382-1.57.578-2.516.578-1.074 0-2.054-.274-2.937-.828-.875-.551-1.57-1.328-2.078-2.328-.512-1-.766-2.149-.766-3.454Zm10 .047c0-.78-.152-1.445-.453-2a3.267 3.267 0 0 0-2.922-1.75c-.594 0-1.148.149-1.656.438-.5.293-.906.719-1.219 1.281-.312.555-.469 1.215-.469 1.984 0 .762.157 1.434.47 2.016.312.574.722 1.012 1.233 1.313a3.13 3.13 0 0 0 1.641.453c.602 0 1.164-.145 1.688-.438.52-.3.93-.726 1.234-1.281.3-.563.453-1.234.453-2.016ZM262.626 90.22v6.156c0 .43.102.742.313.937.207.188.554.282 1.046.282h1.485v2.703h-2.016c-2.71 0-4.062-1.317-4.062-3.953V90.22h-1.516v-2.641h1.516v-3.156h3.234v3.156h2.844v2.64ZM279.802 87.579v12.719h-3.234v-1.61c-.418.555-.961.985-1.625 1.297a5.057 5.057 0 0 1-2.172.469c-.992 0-1.871-.207-2.64-.625-.762-.426-1.36-1.047-1.797-1.86-.438-.82-.657-1.8-.657-2.937V87.58h3.22v7c0 1.012.25 1.789.75 2.328.507.543 1.202.813 2.077.813.883 0 1.578-.27 2.078-.813.508-.539.766-1.316.766-2.328v-7ZM286.186 89.548a4.43 4.43 0 0 1 1.625-1.578c.664-.383 1.425-.579 2.28-.579v3.375h-.843c-1.012 0-1.777.243-2.297.72-.512.468-.765 1.292-.765 2.468v6.344h-3.22v-12.72h3.22ZM291.432 93.891c0-1.289.254-2.43.766-3.421.508-1 1.203-1.766 2.078-2.297a5.558 5.558 0 0 1 2.953-.813c.957 0 1.79.195 2.5.578.707.387 1.274.871 1.703 1.453V87.58h3.25v12.719h-3.25v-1.86c-.406.594-.976 1.09-1.703 1.485-.73.382-1.57.578-2.515.578-1.075 0-2.055-.274-2.938-.828-.875-.551-1.57-1.328-2.078-2.328-.512-1-.766-2.149-.766-3.454Zm10 .047c0-.78-.152-1.445-.453-2a3.267 3.267 0 0 0-2.922-1.75c-.593 0-1.148.149-1.656.438-.5.293-.906.719-1.219 1.281-.312.555-.468 1.215-.468 1.984 0 .762.156 1.434.468 2.016.313.574.723 1.012 1.235 1.313a3.13 3.13 0 0 0 1.64.453c.602 0 1.164-.145 1.688-.438.52-.3.93-.726 1.234-1.281.301-.563.453-1.234.453-2.016ZM311.034 83.298v17h-3.219v-17ZM318.884 92.25c0-1.57.352-2.984 1.063-4.234a7.594 7.594 0 0 1 2.922-2.906c1.238-.695 2.625-1.047 4.156-1.047 1.789 0 3.36.461 4.703 1.375 1.352.918 2.297 2.188 2.828 3.813h-3.703c-.367-.77-.883-1.344-1.547-1.719-.668-.383-1.437-.578-2.312-.578-.93 0-1.758.219-2.485.656-.73.438-1.297 1.059-1.703 1.86-.406.793-.61 1.718-.61 2.78 0 1.063.204 1.997.61 2.798.406.804.973 1.422 1.703 1.86.727.437 1.555.655 2.485.655.875 0 1.644-.191 2.312-.578.664-.394 1.18-.972 1.547-1.734h3.703c-.531 1.637-1.469 2.914-2.812 3.828-1.344.906-2.918 1.36-4.72 1.36-1.53 0-2.917-.348-4.155-1.048a7.703 7.703 0 0 1-2.922-2.906c-.711-1.238-1.063-2.648-1.063-4.234ZM336.49 93.891c0-1.289.254-2.43.766-3.421.508-1 1.203-1.766 2.078-2.297a5.558 5.558 0 0 1 2.953-.813c.957 0 1.79.195 2.5.578.707.387 1.274.871 1.703 1.453V87.58h3.25v12.719h-3.25v-1.86c-.406.594-.976 1.09-1.703 1.485-.73.382-1.57.578-2.515.578-1.075 0-2.055-.274-2.938-.828-.875-.551-1.57-1.328-2.078-2.328-.512-1-.766-2.149-.766-3.454Zm10 .047c0-.78-.152-1.445-.453-2a3.267 3.267 0 0 0-2.922-1.75c-.593 0-1.148.149-1.656.438-.5.293-.906.719-1.219 1.281-.312.555-.468 1.215-.468 1.984 0 .762.156 1.434.468 2.016.313.574.723 1.012 1.235 1.313a3.13 3.13 0 0 0 1.64.453c.602 0 1.165-.145 1.688-.438.52-.3.93-.726 1.234-1.281.301-.563.453-1.234.453-2.016ZM357.748 100.5c-1.043 0-1.98-.187-2.812-.562-.824-.375-1.477-.879-1.953-1.515a3.946 3.946 0 0 1-.797-2.14h3.25c.05.491.285.897.703 1.218.426.324.957.484 1.594.484.601 0 1.078-.125 1.422-.375.351-.25.531-.562.531-.937 0-.414-.215-.727-.64-.938-.419-.207-1.087-.43-2-.672-.962-.226-1.743-.46-2.344-.703a4.161 4.161 0 0 1-1.563-1.125c-.437-.508-.656-1.195-.656-2.062 0-.696.203-1.336.61-1.922.405-.582.987-1.04 1.75-1.375.757-.344 1.648-.516 2.671-.516 1.52 0 2.727.383 3.625 1.14.906.763 1.406 1.782 1.5 3.063h-3.078c-.043-.5-.25-.894-.625-1.187-.375-.301-.883-.453-1.516-.453-.574 0-1.023.11-1.343.328a.997.997 0 0 0-.47.875c0 .437.212.765.641.984.438.219 1.102.445 2 .672.926.23 1.688.469 2.282.719.593.242 1.11.62 1.547 1.14.437.512.664 1.188.687 2.032 0 .73-.203 1.386-.61 1.968-.406.586-.991 1.043-1.75 1.375-.761.32-1.648.485-2.656.485ZM377.218 93.657c0 .461-.028.875-.078 1.25h-9.313c.082.918.406 1.637.969 2.156.562.524 1.258.782 2.094.782 1.187 0 2.035-.516 2.546-1.547h3.47a5.807 5.807 0 0 1-2.11 3.03c-1.043.782-2.324 1.173-3.844 1.173-1.219 0-2.32-.27-3.297-.813a5.676 5.676 0 0 1-2.265-2.297c-.543-1-.813-2.148-.813-3.453 0-1.32.266-2.476.797-3.468a5.5 5.5 0 0 1 2.25-2.297c.969-.54 2.078-.813 3.328-.813 1.207 0 2.29.262 3.25.781a5.467 5.467 0 0 1 2.219 2.22c.531.96.797 2.058.797 3.296Zm-3.328-.922c-.012-.82-.309-1.484-.891-1.984-.586-.5-1.297-.75-2.14-.75-.794 0-1.465.246-2.016.734-.543.48-.871 1.149-.985 2ZM382.778 89.548a4.43 4.43 0 0 1 1.625-1.578c.664-.383 1.426-.579 2.281-.579v3.375h-.844c-1.011 0-1.777.243-2.296.72-.512.468-.766 1.292-.766 2.468v6.344h-3.219v-12.72h3.219ZM388.025 93.891c0-1.289.254-2.43.765-3.421.508-1 1.203-1.766 2.078-2.297a5.558 5.558 0 0 1 2.954-.813c.957 0 1.789.195 2.5.578.707.387 1.273.871 1.703 1.453V87.58h3.25v12.719h-3.25v-1.86c-.407.594-.977 1.09-1.703 1.485-.73.382-1.57.578-2.516.578-1.074 0-2.055-.274-2.938-.828-.875-.551-1.57-1.328-2.078-2.328-.511-1-.765-2.149-.765-3.454Zm10 .047c0-.78-.153-1.445-.453-2a3.267 3.267 0 0 0-2.922-1.75c-.594 0-1.149.149-1.657.438-.5.293-.906.719-1.218 1.281-.313.555-.469 1.215-.469 1.984 0 .762.156 1.434.469 2.016.312.574.722 1.012 1.234 1.313a3.13 3.13 0 0 0 1.64.453c.602 0 1.165-.145 1.688-.438.52-.3.93-.726 1.235-1.281.3-.563.453-1.234.453-2.016Zm0 0" fill="#ff1616"></path></svg>